<svg width="9" height="8" viewBox="0 0 9 8" fill="none" xmlns="http://www.w3.org/2000/svg">
<path d="M3.51173 6.8894C3.47017 6.84947 3.29262 6.69887 3.14645 6.55844C2.22759 5.73559 0.717999 3.58286 0.253931 2.45385C0.179431 2.28242 0.0212583 1.8488 0.00967837 1.61661C0.00812976 1.39405 0.0578951 1.18154 0.160392 0.978372C0.30382 0.724996 0.530862 0.520959 0.799819 0.408152C0.986495 0.335439 1.54582 0.220611 1.55578 0.220542C2.16777 0.105348 3.16299 0.0374087 4.26326 0.0297527C5.31157 0.0224581 6.26708 0.0768238 6.88972 0.163319C6.89976 0.17365 7.59656 0.279737 7.83582 0.399407C8.27292 0.61893 8.54638 1.05175 8.54962 1.51697L8.5499 1.55718C8.54133 1.86023 8.27532 2.49927 8.26536 2.49934C7.81591 3.57368 6.40938 5.69679 5.47089 6.55267C5.47089 6.55267 5.22987 6.79355 5.079 6.8986C4.86235 7.06235 4.59318 7.14465 4.32346 7.14653C4.02241 7.14862 3.74138 7.05975 3.51173 6.8894Z" fill="#090415" fill-opacity="0.7"/>
</svg>
