<svg width="21" height="21" viewBox="0 0 21 21" fill="none" xmlns="http://www.w3.org/2000/svg">
<path d="M7.08984 5.16138C6.73964 5.16138 6.44922 4.87096 6.44922 4.52075V1.95825C6.44922 1.60804 6.73964 1.31763 7.08984 1.31763C7.44005 1.31763 7.73047 1.60804 7.73047 1.95825V4.52075C7.73047 4.87096 7.44005 5.16138 7.08984 5.16138Z" fill="#090415"/>
<path d="M13.918 5.16138C13.5678 5.16138 13.2773 4.87096 13.2773 4.52075V1.95825C13.2773 1.60804 13.5678 1.31763 13.918 1.31763C14.2682 1.31763 14.5586 1.60804 14.5586 1.95825V4.52075C14.5586 4.87096 14.2682 5.16138 13.918 5.16138Z" fill="#090415"/>
<path d="M7.51042 12.636C7.39937 12.636 7.28833 12.6104 7.18583 12.5677C7.07479 12.525 6.98938 12.4652 6.90396 12.3883C6.75021 12.226 6.65625 12.0125 6.65625 11.7819C6.65625 11.6708 6.68188 11.5598 6.72458 11.4573C6.76729 11.3548 6.82708 11.2608 6.90396 11.1754C6.98938 11.0985 7.07479 11.0387 7.18583 10.996C7.49333 10.8679 7.87771 10.9362 8.11687 11.1754C8.27062 11.3377 8.36458 11.5598 8.36458 11.7819C8.36458 11.8331 8.35604 11.8929 8.3475 11.9527C8.33896 12.004 8.32187 12.0552 8.29625 12.1064C8.27917 12.1577 8.25354 12.2089 8.21938 12.2602C8.19375 12.3029 8.15104 12.3456 8.11687 12.3883C7.95458 12.5421 7.7325 12.636 7.51042 12.636Z" fill="#090415"/>
<path d="M10.4987 12.6358C10.3877 12.6358 10.2766 12.6102 10.1741 12.5675C10.0631 12.5248 9.97766 12.465 9.89224 12.3881C9.73849 12.2258 9.64453 12.0123 9.64453 11.7816C9.64453 11.6706 9.67016 11.5595 9.71287 11.457C9.75557 11.3545 9.81537 11.2606 9.89224 11.1752C9.97766 11.0983 10.0631 11.0385 10.1741 10.9958C10.4816 10.8591 10.866 10.936 11.1052 11.1752C11.2589 11.3375 11.3529 11.5595 11.3529 11.7816C11.3529 11.8329 11.3443 11.8927 11.3358 11.9525C11.3272 12.0037 11.3102 12.055 11.2845 12.1062C11.2674 12.1575 11.2418 12.2087 11.2077 12.26C11.182 12.3027 11.1393 12.3454 11.1052 12.3881C10.9429 12.5418 10.7208 12.6358 10.4987 12.6358Z" fill="#090415"/>
<path d="M13.4909 12.6358C13.3798 12.6358 13.2688 12.6102 13.1663 12.5675C13.0553 12.5248 12.9698 12.465 12.8844 12.3881C12.8503 12.3454 12.8161 12.3027 12.7819 12.26C12.7478 12.2087 12.7221 12.1575 12.7051 12.1062C12.6794 12.055 12.6623 12.0037 12.6538 11.9525C12.6453 11.8927 12.6367 11.8329 12.6367 11.7816C12.6367 11.5595 12.7307 11.3375 12.8844 11.1752C12.9698 11.0983 13.0553 11.0385 13.1663 10.9958C13.4823 10.8591 13.8582 10.936 14.0973 11.1752C14.2511 11.3375 14.3451 11.5595 14.3451 11.7816C14.3451 11.8329 14.3365 11.8927 14.328 11.9525C14.3194 12.0037 14.3023 12.055 14.2767 12.1062C14.2596 12.1575 14.234 12.2087 14.1998 12.26C14.1742 12.3027 14.1315 12.3454 14.0973 12.3881C13.9351 12.5418 13.713 12.6358 13.4909 12.6358Z" fill="#090415"/>
<path d="M7.51042 15.6264C7.39937 15.6264 7.28833 15.6008 7.18583 15.5581C7.08333 15.5154 6.98938 15.4556 6.90396 15.3787C6.75021 15.2164 6.65625 14.9943 6.65625 14.7723C6.65625 14.6612 6.68188 14.5502 6.72458 14.4477C6.76729 14.3366 6.82708 14.2427 6.90396 14.1658C7.22 13.8498 7.80083 13.8498 8.11687 14.1658C8.27062 14.3281 8.36458 14.5502 8.36458 14.7723C8.36458 14.9943 8.27062 15.2164 8.11687 15.3787C7.95458 15.5325 7.7325 15.6264 7.51042 15.6264Z" fill="#090415"/>
<path d="M10.4987 15.6264C10.2766 15.6264 10.0545 15.5325 9.89224 15.3787C9.73849 15.2164 9.64453 14.9943 9.64453 14.7723C9.64453 14.6612 9.67016 14.5502 9.71287 14.4477C9.75557 14.3366 9.81537 14.2427 9.89224 14.1658C10.2083 13.8498 10.7891 13.8498 11.1052 14.1658C11.182 14.2427 11.2418 14.3366 11.2845 14.4477C11.3272 14.5502 11.3529 14.6612 11.3529 14.7723C11.3529 14.9943 11.2589 15.2164 11.1052 15.3787C10.9429 15.5325 10.7208 15.6264 10.4987 15.6264Z" fill="#090415"/>
<path d="M13.4909 15.6244C13.2688 15.6244 13.0467 15.5305 12.8844 15.3767C12.8076 15.2998 12.7478 15.2059 12.7051 15.0949C12.6623 14.9924 12.6367 14.8813 12.6367 14.7703C12.6367 14.6592 12.6623 14.5482 12.7051 14.4457C12.7478 14.3346 12.8076 14.2407 12.8844 14.1638C13.0809 13.9674 13.3798 13.8734 13.6532 13.9332C13.713 13.9417 13.7642 13.9588 13.8155 13.9844C13.8667 14.0015 13.918 14.0272 13.9692 14.0613C14.0119 14.0869 14.0546 14.1297 14.0973 14.1638C14.2511 14.3261 14.3451 14.5482 14.3451 14.7703C14.3451 14.9924 14.2511 15.2144 14.0973 15.3767C13.9351 15.5305 13.713 15.6244 13.4909 15.6244Z" fill="#090415"/>
<path d="M17.7669 8.6568H3.24609C2.89589 8.6568 2.60547 8.36638 2.60547 8.01617C2.60547 7.66597 2.89589 7.37555 3.24609 7.37555H17.7669C18.1171 7.37555 18.4076 7.66597 18.4076 8.01617C18.4076 8.36638 18.1171 8.6568 17.7669 8.6568Z" fill="#090415"/>
<path d="M13.9167 19.6811H7.08333C3.96563 19.6811 2.17188 17.8873 2.17188 14.7696V7.50918C2.17188 4.39147 3.96563 2.59772 7.08333 2.59772H13.9167C17.0344 2.59772 18.8281 4.39147 18.8281 7.50918V14.7696C18.8281 17.8873 17.0344 19.6811 13.9167 19.6811ZM7.08333 3.87897C4.64042 3.87897 3.45313 5.06626 3.45313 7.50918V14.7696C3.45313 17.2125 4.64042 18.3998 7.08333 18.3998H13.9167C16.3596 18.3998 17.5469 17.2125 17.5469 14.7696V7.50918C17.5469 5.06626 16.3596 3.87897 13.9167 3.87897H7.08333Z" fill="#090415"/>
</svg>
