<svg width="7" height="7" viewBox="0 0 7 7" fill="none" xmlns="http://www.w3.org/2000/svg">
<rect x="0.4375" y="0.706055" width="5.76471" height="5.76471" rx="2.88235" fill="#D82594"/>
<path d="M3.69784 2.02106L3.61878 4.40765H3.03572L2.95172 2.02106H3.69784ZM3.34208 5.56389C3.2169 5.56389 3.11313 5.526 3.03078 5.45024C2.95172 5.37118 2.91219 5.274 2.91219 5.15871C2.91219 5.04341 2.95172 4.94789 3.03078 4.87212C3.11313 4.79306 3.2169 4.75353 3.34208 4.75353C3.46396 4.75353 3.56443 4.79306 3.64349 4.87212C3.72255 4.94789 3.76208 5.04341 3.76208 5.15871C3.76208 5.274 3.72255 5.37118 3.64349 5.45024C3.56443 5.526 3.46396 5.56389 3.34208 5.56389Z" fill="white"/>
<rect x="0.4375" y="0.706055" width="5.76471" height="5.76471" rx="2.88235" stroke="#D82594" stroke-width="0.583768"/>
</svg>
