<svg width="20" height="21" viewBox="0 0 20 21" fill="none" xmlns="http://www.w3.org/2000/svg">
<path d="M2.10526 1.78571H1.98622V1.90476V15.119H0.119048V1.90476C0.119048 0.933821 1.00163 0.119048 2.10526 0.119048H14.6178V1.78571H2.10526ZM17.8947 19.1667H18.0138V19.0476V5.71429V5.59524H17.8947H6.31579H6.19674V5.71429V19.0476V19.1667H6.31579H17.8947ZM6.31579 3.92857H17.8947C18.9984 3.92857 19.881 4.74334 19.881 5.71429V19.0476C19.881 20.0186 18.9984 20.8333 17.8947 20.8333H6.31579C5.21215 20.8333 4.32957 20.0186 4.32957 19.0476V5.71429C4.32957 4.74334 5.21215 3.92857 6.31579 3.92857Z" fill="#ADABB1" stroke="white" stroke-width="0.238095"/>
</svg>
