<svg width="25" height="25" viewBox="0 0 25 25" fill="none" xmlns="http://www.w3.org/2000/svg">
<circle cx="12.75" cy="12.25" r="12.25" fill="#C4C4C4" fill-opacity="0.3"/>
<path d="M19.1106 11.9195C18.5956 10.5872 17.7015 9.43506 16.5387 8.60544C15.376 7.77582 13.9957 7.30508 12.5684 7.2514C11.141 7.30508 9.7607 7.77582 8.59798 8.60544C7.43527 9.43506 6.54113 10.5872 6.02609 11.9195C5.9913 12.0157 5.9913 12.121 6.02609 12.2172C6.54113 13.5495 7.43527 14.7016 8.59798 15.5312C9.7607 16.3609 11.141 16.8316 12.5684 16.8853C13.9957 16.8316 15.376 16.3609 16.5387 15.5312C17.7015 14.7016 18.5956 13.5495 19.1106 12.2172C19.1454 12.121 19.1454 12.0157 19.1106 11.9195ZM12.5684 16.0095C10.2475 16.0095 7.79522 14.2885 6.90627 12.0683C7.79522 9.84817 10.2475 8.12721 12.5684 8.12721C14.8893 8.12721 17.3415 9.84817 18.2305 12.0683C17.3415 14.2885 14.8893 16.0095 12.5684 16.0095Z" fill="#090415" fill-opacity="0.65"/>
<path d="M12.5727 9.44153C12.0531 9.44153 11.5451 9.59562 11.113 9.88433C10.6809 10.173 10.3442 10.5834 10.1453 11.0635C9.94645 11.5436 9.89442 12.0719 9.9958 12.5815C10.0972 13.0912 10.3474 13.5594 10.7149 13.9268C11.0823 14.2943 11.5505 14.5445 12.0601 14.6459C12.5698 14.7473 13.0981 14.6952 13.5782 14.4964C14.0583 14.2975 14.4686 13.9607 14.7574 13.5287C15.0461 13.0966 15.2002 12.5886 15.2002 12.0689C15.2002 11.3721 14.9233 10.7038 14.4306 10.2111C13.9379 9.71835 13.2696 9.44153 12.5727 9.44153ZM12.5727 13.8206C12.2263 13.8206 11.8876 13.7178 11.5996 13.5254C11.3115 13.3329 11.087 13.0593 10.9545 12.7393C10.8219 12.4192 10.7872 12.067 10.8548 11.7272C10.9224 11.3874 11.0892 11.0753 11.3342 10.8304C11.5791 10.5854 11.8912 10.4186 12.231 10.351C12.5708 10.2834 12.923 10.3181 13.243 10.4507C13.5631 10.5832 13.8367 10.8078 14.0291 11.0958C14.2216 11.3839 14.3243 11.7225 14.3243 12.0689C14.3243 12.5335 14.1398 12.979 13.8113 13.3075C13.4828 13.636 13.0373 13.8206 12.5727 13.8206Z" fill="#090415" fill-opacity="0.65"/>
</svg>
