<svg width="16" height="16" viewBox="0 0 16 16" fill="none" xmlns="http://www.w3.org/2000/svg">
<path d="M6.55395 12.2109H1" stroke="#090415" stroke-opacity="0.5" stroke-width="1.61538" stroke-linecap="round" stroke-linejoin="round"/>
<path fill-rule="evenodd" clip-rule="evenodd" d="M15.0004 12.2111C15.0004 13.4319 14.01 14.4223 12.7893 14.4223C11.5678 14.4223 10.5781 13.4319 10.5781 12.2111C10.5781 10.9889 11.5678 10 12.7893 10C14.01 10 15.0004 10.9889 15.0004 12.2111Z" stroke="#090415" stroke-opacity="0.5" stroke-width="1.61538" stroke-linecap="round" stroke-linejoin="round"/>
<path d="M9.44531 3.20312H15" stroke="#090415" stroke-opacity="0.5" stroke-width="1.61538" stroke-linecap="round" stroke-linejoin="round"/>
<path fill-rule="evenodd" clip-rule="evenodd" d="M1 3.20723C1 4.4295 1.98964 5.41837 3.21114 5.41837C4.43187 5.41837 5.42228 4.4295 5.42228 3.20723C5.42228 1.9865 4.43187 0.996094 3.21114 0.996094C1.98964 0.996094 1 1.9865 1 3.20723Z" stroke="#090415" stroke-opacity="0.5" stroke-width="1.61538" stroke-linecap="round" stroke-linejoin="round"/>
</svg>
