<svg width="21" height="22" viewBox="0 0 21 22" fill="none" xmlns="http://www.w3.org/2000/svg">
<path d="M8.09375 8.41992C9.65125 8.98867 11.3488 8.98867 12.9062 8.41992" stroke="#84828A" stroke-width="1.3125" stroke-linecap="round" stroke-linejoin="round"/>
<path d="M14.7173 2.25H6.28229C4.41853 2.25 2.90479 3.7725 2.90479 5.6275V17.9563C2.90479 19.5313 4.03354 20.1962 5.41604 19.435L9.68604 17.0638C10.141 16.81 10.876 16.81 11.3223 17.0638L15.5923 19.435C16.9748 20.205 18.1035 19.54 18.1035 17.9563V5.6275C18.0948 3.7725 16.581 2.25 14.7173 2.25Z" stroke="#84828A" stroke-width="1.3125" stroke-linecap="round" stroke-linejoin="round"/>
<path d="M14.7173 2.25H6.28229C4.41853 2.25 2.90479 3.7725 2.90479 5.6275V17.9563C2.90479 19.5313 4.03354 20.1962 5.41604 19.435L9.68604 17.0638C10.141 16.81 10.876 16.81 11.3223 17.0638L15.5923 19.435C16.9748 20.205 18.1035 19.54 18.1035 17.9563V5.6275C18.0948 3.7725 16.581 2.25 14.7173 2.25Z" stroke="#84828A" stroke-width="1.3125" stroke-linecap="round" stroke-linejoin="round"/>
</svg>
