<svg width="56" height="66" viewBox="0 0 56 66" fill="none" xmlns="http://www.w3.org/2000/svg">
<circle cx="54.2177" cy="4.46802" r="3.10851" transform="rotate(38.0213 54.2177 4.46802)" fill="#EAE0FF"/>
<circle cx="48.0908" cy="12.304" r="3.10851" transform="rotate(38.0213 48.0908 12.304)" fill="#EAE0FF"/>
<circle cx="56.4169" cy="18.8137" r="3.10851" transform="rotate(38.0213 56.4169 18.8137)" fill="#EAE0FF"/>
<circle cx="41.9638" cy="20.1409" r="3.10851" transform="rotate(38.0213 41.9638 20.1409)" fill="#EAE0FF"/>
<circle cx="50.29" cy="26.6506" r="3.10851" transform="rotate(38.0213 50.29 26.6506)" fill="#EAE0FF"/>
<circle cx="58.6162" cy="33.1604" r="3.10851" transform="rotate(38.0213 58.6162 33.1604)" fill="#EAE0FF"/>
<circle cx="35.8369" cy="27.9768" r="3.10851" transform="rotate(38.0213 35.8369 27.9768)" fill="#EAE0FF"/>
<circle cx="44.1625" cy="34.4866" r="3.10851" transform="rotate(38.0213 44.1625 34.4866)" fill="#EAE0FF"/>
<circle cx="52.4887" cy="40.9973" r="3.10851" transform="rotate(38.0213 52.4887 40.9973)" fill="#EAE0FF"/>
<circle cx="29.7094" cy="35.8127" r="3.10851" transform="rotate(38.0213 29.7094 35.8127)" fill="#EAE0FF"/>
<circle cx="38.0356" cy="42.3225" r="3.10851" transform="rotate(38.0213 38.0356 42.3225)" fill="#EAE0FF"/>
<circle cx="46.3613" cy="48.8323" r="3.10851" transform="rotate(38.0213 46.3613 48.8323)" fill="#EAE0FF"/>
<circle cx="54.6874" cy="55.343" r="3.10851" transform="rotate(38.0213 54.6874 55.343)" fill="#EAE0FF"/>
<circle cx="23.5825" cy="43.6497" r="3.10851" transform="rotate(38.0213 23.5825 43.6497)" fill="#EAE0FF"/>
<circle cx="31.9086" cy="50.1594" r="3.10851" transform="rotate(38.0213 31.9086 50.1594)" fill="#EAE0FF"/>
<circle cx="40.2343" cy="56.6692" r="3.10851" transform="rotate(38.0213 40.2343 56.6692)" fill="#EAE0FF"/>
<circle cx="48.5605" cy="63.1799" r="3.10851" transform="rotate(38.0213 48.5605 63.1799)" fill="#EAE0FF"/>
<circle cx="17.4555" cy="51.4856" r="3.10851" transform="rotate(38.0213 17.4555 51.4856)" fill="#EAE0FF"/>
<circle cx="25.7817" cy="57.9954" r="3.10851" transform="rotate(38.0213 25.7817 57.9954)" fill="#EAE0FF"/>
<circle cx="34.1079" cy="64.5051" r="3.10851" transform="rotate(38.0213 34.1079 64.5051)" fill="#EAE0FF"/>
<circle cx="11.3281" cy="59.3215" r="3.10851" transform="rotate(38.0213 11.3281 59.3215)" fill="#EAE0FF"/>
<circle cx="19.6542" cy="65.8313" r="3.10851" transform="rotate(38.0213 19.6542 65.8313)" fill="#EAE0FF"/>
<circle cx="5.20161" cy="67.1584" r="3.10851" transform="rotate(38.0213 5.20161 67.1584)" fill="#EAE0FF"/>
</svg>
