<svg width="37" height="37" viewBox="0 0 37 37" fill="none" xmlns="http://www.w3.org/2000/svg">
<path d="M11.794 32.2329C11.7478 32.2329 11.6861 32.2638 11.6399 32.2638C8.64902 30.7838 6.21319 28.3325 4.71777 25.3417C4.71777 25.2954 4.74861 25.2337 4.74861 25.1875C6.62944 25.7425 8.57194 26.1588 10.499 26.4825C10.8382 28.425 11.239 30.3521 11.794 32.2329Z" fill="#5B26CF"/>
<path d="M32.283 25.3571C30.7568 28.425 28.213 30.9071 25.1143 32.4025C25.7001 30.4446 26.1934 28.4713 26.5172 26.4825C28.4597 26.1588 30.3713 25.7425 32.2522 25.1875C32.2368 25.2492 32.283 25.3108 32.283 25.3571Z" fill="#5B26CF"/>
<path d="M32.4063 11.8858C30.4638 11.3 28.5059 10.8221 26.5172 10.4829C26.1934 8.49417 25.7155 6.52083 25.1143 4.59375C28.3055 6.12 30.8801 8.69458 32.4063 11.8858Z" fill="#5B26CF"/>
<path d="M11.7933 4.765C11.2383 6.64583 10.8375 8.5575 10.5138 10.5C8.525 10.8083 6.55167 11.3017 4.59375 11.8875C6.08917 8.78875 8.57125 6.245 11.6392 4.71875C11.6854 4.71875 11.7471 4.765 11.7933 4.765Z" fill="#5B26CF"/>
<path d="M23.88 10.1622C20.3033 9.76135 16.6958 9.76135 13.1191 10.1622C13.5046 8.0501 13.9979 5.93802 14.6916 3.90302C14.7225 3.77969 14.7071 3.68719 14.7225 3.56385C15.9404 3.27094 17.1891 3.08594 18.4996 3.08594C19.7946 3.08594 21.0587 3.27094 22.2612 3.56385C22.2766 3.68719 22.2766 3.77969 22.3075 3.90302C23.0012 5.95344 23.4946 8.0501 23.88 10.1622Z" fill="#5B26CF"/>
<path d="M10.1602 23.878C8.03273 23.4926 5.93607 22.9993 3.90107 22.3055C3.77773 22.2747 3.68523 22.2901 3.5619 22.2747C3.26898 21.0568 3.08398 19.808 3.08398 18.4976C3.08398 17.2026 3.26898 15.9384 3.5619 14.7359C3.68523 14.7205 3.77773 14.7205 3.90107 14.6897C5.95148 14.0114 8.03273 13.5026 10.1602 13.1172C9.77482 16.6939 9.77482 20.3014 10.1602 23.878Z" fill="#5B26CF"/>
<path d="M33.918 18.4976C33.918 19.808 33.733 21.0568 33.4401 22.2747C33.3168 22.2901 33.2243 22.2747 33.101 22.3055C31.0505 22.9839 28.9539 23.4926 26.8418 23.878C27.2426 20.3014 27.2426 16.6939 26.8418 13.1172C28.9539 13.5026 31.066 13.9959 33.101 14.6897C33.2243 14.7205 33.3168 14.7359 33.4401 14.7359C33.733 15.9539 33.918 17.2026 33.918 18.4976Z" fill="#5B26CF"/>
<path d="M23.88 26.8438C23.4946 28.9712 23.0012 31.0679 22.3075 33.1029C22.2766 33.2262 22.2766 33.3188 22.2612 33.4421C21.0587 33.735 19.7946 33.92 18.4996 33.92C17.1891 33.92 15.9404 33.735 14.7225 33.4421C14.7071 33.3188 14.7225 33.2262 14.6916 33.1029C14.0133 31.0525 13.5046 28.9712 13.1191 26.8438C14.9075 27.0442 16.6958 27.1829 18.4996 27.1829C20.3033 27.1829 22.1071 27.0442 23.88 26.8438Z" fill="#5B26CF"/>
<path d="M24.3025 24.3044C20.4466 24.7909 16.5547 24.7909 12.6988 24.3044C12.2124 20.4486 12.2124 16.5567 12.6988 12.7008C16.5547 12.2143 20.4466 12.2143 24.3025 12.7008C24.7889 16.5567 24.7889 20.4486 24.3025 24.3044Z" fill="#5B26CF"/>
</svg>
