<svg width="8" height="11" viewBox="0 0 8 11" fill="none" xmlns="http://www.w3.org/2000/svg">
<path d="M0.901695 10.3889C0.849202 10.4324 0.788154 10.4574 0.725076 10.4613C0.661997 10.4652 0.599259 10.4477 0.543565 10.4108C0.487872 10.3739 0.441317 10.3189 0.408875 10.2518C0.376433 10.1847 0.359323 10.1079 0.359375 10.0296V1.83078C0.359374 1.37321 0.505874 0.934328 0.766723 0.610454C1.02757 0.28658 1.38146 0.10417 1.75073 0.103255L5.93315 0.0937535C6.11623 0.0932993 6.29759 0.137533 6.46687 0.22393C6.63616 0.310327 6.79005 0.437194 6.91977 0.597289C7.04949 0.757383 7.15249 0.947569 7.22289 1.15699C7.29329 1.36641 7.32971 1.59096 7.33007 1.81782V10.0287C7.33013 10.107 7.31302 10.1838 7.28058 10.2509C7.24813 10.3181 7.20158 10.373 7.14588 10.4099C7.09019 10.4468 7.02745 10.4643 6.96437 10.4604C6.9013 10.4566 6.84025 10.4316 6.78775 10.3881L3.84472 7.95225L0.901695 10.3881V10.3889ZM6.633 1.82214L6.62813 1.72021C6.60796 1.50996 6.52618 1.31621 6.39832 1.17577C6.27045 1.03532 6.10541 0.957957 5.93454 0.958378L1.75212 0.967016C1.56749 0.967473 1.39054 1.05868 1.26012 1.22062C1.12969 1.38255 1.05644 1.60199 1.05644 1.83078V9.22198L3.65094 7.07467C3.70829 7.02713 3.77573 7.00176 3.84472 7.00176C3.91372 7.00176 3.98116 7.02713 4.03851 7.07467L6.633 9.22198V1.82214Z" fill="#FF0000"/>
<path d="M0.785156 1.93071C0.785156 1.25705 1.33127 0.710938 2.00493 0.710938H5.66425C6.33791 0.710938 6.88402 1.25705 6.88402 1.93071V7.41969H0.785156V1.93071Z" fill="#FF0000"/>
<rect x="0.96875" y="7.41797" width="2.43955" height="0.609887" fill="#FF0000"/>
<rect x="4.02344" y="7.41797" width="3.04943" height="0.609887" fill="#FF0000"/>
<rect x="0.96875" y="8.0293" width="1.82966" height="0.609887" fill="#FF0000"/>
<rect x="4.75" y="8.0293" width="2.07362" height="0.609887" fill="#FF0000"/>
<rect x="0.96875" y="8.63867" width="1.21977" height="0.609887" fill="#FF0000"/>
<rect x="5.84766" y="8.63867" width="1.21977" height="0.609887" fill="#FF0000"/>
</svg>
