<svg width="25" height="25" viewBox="0 0 25 25" fill="none" xmlns="http://www.w3.org/2000/svg">
<circle cx="12.25" cy="12.25" r="12.25" fill="#C4C4C4" fill-opacity="0.3"/>
<g clip-path="url(#clip0_5251_27723)">
<g clip-path="url(#clip1_5251_27723)">
<path d="M14.8371 6.59344C13.306 6.59344 12.0633 7.83612 12.0633 9.36728C12.0633 10.8984 13.306 12.1411 14.8371 12.1411C16.3683 12.1411 17.611 10.8984 17.611 9.36728C17.611 7.83612 16.3683 6.59344 14.8371 6.59344ZM14.8371 11.0316C13.9162 11.0316 13.1728 10.2882 13.1728 9.36728C13.1728 8.44637 13.9162 7.70298 14.8371 7.70298C15.7581 7.70298 16.5014 8.44637 16.5014 9.36728C16.5014 10.2882 15.7581 11.0316 14.8371 11.0316ZM16.5014 14.3602H15.3919C15.3919 13.6945 14.9758 13.0953 14.3545 12.8623L10.9371 11.5864H6.51562V17.6888H9.84423V16.8899L13.7276 17.9662L18.1657 16.5793V16.0245C18.1657 15.1036 17.4224 14.3602 16.5014 14.3602ZM8.7347 16.5793H7.62516V12.6959H8.7347V16.5793ZM13.711 16.8067L9.84423 15.7471V12.6959H10.7374L13.9662 13.8997C14.1548 13.9719 14.2824 14.1549 14.2824 14.3602C14.2824 14.3602 13.1728 14.3325 13.0064 14.277L11.6861 13.8387L11.3366 14.8928L12.6569 15.331C12.9398 15.4253 13.2339 15.4697 13.5334 15.4697H16.5014C16.7178 15.4697 16.912 15.6029 17.0007 15.7859L13.711 16.8067Z" fill="#090415" fill-opacity="0.65"/>
</g>
</g>
<defs>
<clipPath id="clip0_5251_27723">
<rect width="13.475" height="13.475" fill="white" transform="translate(5.51562 5.51373)"/>
</clipPath>
<clipPath id="clip1_5251_27723">
<rect width="12.8947" height="12.8947" fill="white" transform="translate(5.96875 5.64203)"/>
</clipPath>
</defs>
</svg>
