<svg width="25" height="25" viewBox="0 0 25 25" fill="none" xmlns="http://www.w3.org/2000/svg">
<circle cx="12.25" cy="12.25" r="12.25" fill="#C4C4C4" fill-opacity="0.3"/>
<path d="M8.42912 15.2508C8.42912 15.1165 8.38004 15.0002 8.28188 14.9021C8.18373 14.8039 8.06749 14.7548 7.93317 14.7548C7.79885 14.7548 7.68261 14.8039 7.58445 14.9021C7.48629 15.0002 7.43722 15.1165 7.43722 15.2508C7.43722 15.3851 7.48629 15.5014 7.58445 15.5995C7.68261 15.6977 7.79885 15.7467 7.93317 15.7467C8.06749 15.7467 8.18373 15.6977 8.28188 15.5995C8.38004 15.5014 8.42912 15.3851 8.42912 15.2508ZM17.3562 10.7872C17.3562 10.5238 17.2555 10.2926 17.054 10.0937C16.8525 9.89478 16.6226 9.79533 16.3643 9.79533H13.6366C13.6366 9.49569 13.7606 9.08369 14.0086 8.55933C14.2565 8.03496 14.3805 7.62038 14.3805 7.31557C14.3805 6.80929 14.2979 6.43474 14.1326 6.19193C13.9672 5.94912 13.6366 5.82772 13.1407 5.82772C13.0063 5.96204 12.9082 6.1816 12.8462 6.4864C12.7842 6.79121 12.7054 7.11538 12.6098 7.45893C12.5143 7.80248 12.3606 8.08533 12.1488 8.30748C12.0351 8.4263 11.8362 8.66136 11.5521 9.01266C11.5314 9.03849 11.472 9.11598 11.3738 9.24513C11.2757 9.37429 11.1943 9.48019 11.1297 9.56285C11.0652 9.64551 10.976 9.75529 10.8624 9.8922C10.7487 10.0291 10.6454 10.1428 10.5524 10.2332C10.4594 10.3236 10.36 10.4153 10.2541 10.5083C10.1482 10.6013 10.0448 10.671 9.94409 10.7175C9.84335 10.764 9.75166 10.7872 9.669 10.7872H9.42102V15.7467H9.669C9.73616 15.7467 9.81752 15.7545 9.9131 15.77C10.0087 15.7855 10.0939 15.8023 10.1688 15.8204C10.2437 15.8384 10.3419 15.8669 10.4633 15.9056C10.5847 15.9444 10.6751 15.9741 10.7345 15.9947C10.7939 16.0154 10.8856 16.0477 11.0096 16.0916C11.1336 16.1355 11.2085 16.1626 11.2343 16.173C12.3244 16.5501 13.2078 16.7387 13.8846 16.7387H14.8222C15.8141 16.7387 16.3101 16.3073 16.3101 15.4445C16.3101 15.3102 16.2972 15.1656 16.2713 15.0106C16.4263 14.9279 16.549 14.7923 16.6394 14.6037C16.7298 14.4152 16.7751 14.2253 16.7751 14.0342C16.7751 13.843 16.7286 13.6648 16.6356 13.4995C16.9094 13.2412 17.0463 12.9338 17.0463 12.5773C17.0463 12.4482 17.0204 12.3048 16.9688 12.1472C16.9171 11.9897 16.8525 11.867 16.7751 11.7791C16.9404 11.774 17.0786 11.6526 17.1896 11.4149C17.3007 11.1773 17.3562 10.968 17.3562 10.7872ZM18.3481 10.7795C18.3481 11.2393 18.2216 11.6603 17.9684 12.0426C18.0149 12.2131 18.0382 12.3913 18.0382 12.5773C18.0382 12.9751 17.94 13.3471 17.7437 13.6932C17.7592 13.8017 17.767 13.9128 17.767 14.0264C17.767 14.5482 17.612 15.008 17.302 15.4058C17.3072 16.1239 17.0876 16.6909 16.6433 17.1067C16.199 17.5226 15.6127 17.7306 14.8842 17.7306H13.8846C13.3886 17.7306 12.8991 17.6724 12.4161 17.5562C11.9331 17.44 11.3738 17.2708 10.7384 17.0486C10.1391 16.842 9.78265 16.7387 9.669 16.7387H7.43722C7.16341 16.7387 6.92964 16.6418 6.73591 16.4481C6.54218 16.2543 6.44531 16.0206 6.44531 15.7467V10.7872C6.44531 10.5134 6.54218 10.2797 6.73591 10.0859C6.92964 9.8922 7.16341 9.79533 7.43722 9.79533H9.56051C9.74649 9.67134 10.1004 9.27096 10.6222 8.5942C10.9218 8.20674 11.1982 7.8761 11.4513 7.60229C11.5753 7.47314 11.667 7.25229 11.7264 6.93973C11.7858 6.62718 11.8646 6.30042 11.9628 5.95946C12.0609 5.61849 12.2211 5.33952 12.4432 5.12254C12.6447 4.93139 12.8772 4.83582 13.1407 4.83582C13.5746 4.83582 13.9647 4.91977 14.3108 5.08767C14.6569 5.25557 14.9204 5.51775 15.1012 5.87421C15.282 6.23068 15.3724 6.71113 15.3724 7.31557C15.3724 7.79603 15.2484 8.29198 15.0005 8.80343H16.3643C16.9016 8.80343 17.3666 8.99974 17.7592 9.39237C18.1518 9.785 18.3481 10.2474 18.3481 10.7795Z" fill="#090415" fill-opacity="0.6"/>
</svg>
