<svg width="59" height="45" viewBox="0 0 59 45" fill="none" xmlns="http://www.w3.org/2000/svg">
<g clip-path="url(#clip0_4502_74270)">
<path d="M58.8 35.665C58.8 40.6283 54.7584 44.67 49.7951 44.67H0.800049V9.00495C0.800049 4.04165 4.8417 0 9.805 0H58.8V35.665Z" fill="white"/>
<path d="M42.8464 26.5206H46.5689C46.6753 26.5206 46.9234 26.4853 47.0299 26.4853C47.7391 26.3434 48.3417 25.7052 48.3417 24.8189C48.3417 23.9682 47.7391 23.3299 47.0299 23.1528C46.9234 23.1172 46.7109 23.1172 46.5691 23.1172H42.8467V26.5206H42.8464Z" fill="url(#paint0_linear_4502_74270)"/>
<path d="M46.1436 3.01562C42.5984 3.01562 39.6911 5.88753 39.6911 9.46813V16.1687H48.8025C49.0153 16.1687 49.2634 16.1687 49.4405 16.2041C51.4968 16.3105 53.0214 17.374 53.0214 19.2173C53.0214 20.671 51.9932 21.9118 50.0788 22.1602V22.2308C52.1704 22.3727 53.7658 23.5426 53.7658 25.3506C53.7658 27.3006 51.9932 28.5769 49.6533 28.5769H39.6558V41.6944H49.1215C52.6668 41.6944 55.574 38.8227 55.574 35.2419V3.01562H46.1436Z" fill="url(#paint1_linear_4502_74270)"/>
<path d="M47.8807 19.6421C47.8807 18.7912 47.278 18.2239 46.5689 18.1174C46.4982 18.1174 46.3208 18.082 46.2145 18.082H42.8464V21.2018H46.2145C46.321 21.2018 46.5335 21.2018 46.5691 21.1665C47.2782 21.06 47.8809 20.4929 47.8809 19.6419L47.8807 19.6421Z" fill="url(#paint2_linear_4502_74270)"/>
<path d="M10.4786 3.01562C6.93332 3.01562 4.02607 5.88753 4.02607 9.46812V25.3864C5.83426 26.2725 7.71314 26.8398 9.59225 26.8398C11.8257 26.8398 13.031 25.4927 13.031 23.6491V16.1331H18.5616V23.6136C18.5616 26.5206 16.7537 28.8961 10.6204 28.8961C6.89797 28.8961 3.99072 28.0805 3.99072 28.0805V41.6588H13.4565C17.0018 41.6588 19.909 38.7871 19.909 35.2063V3.01608H10.4783L10.4786 3.01562Z" fill="url(#paint3_linear_4502_74270)"/>
<path d="M28.3109 3.01562C24.7656 3.01562 21.8584 5.88753 21.8584 9.46812V17.9058C23.4894 16.5231 26.3255 15.6367 30.8989 15.8495C33.3451 15.956 35.9685 16.6295 35.9685 16.6295V19.3594C34.6567 18.6858 33.097 18.0829 31.0761 17.9411C27.6018 17.693 25.5101 19.3947 25.5101 22.3727C25.5101 25.3862 27.6018 27.0879 31.0761 26.8042C33.097 26.6624 34.6569 26.0244 35.9685 25.3862V28.116C35.9685 28.116 33.3805 28.7896 30.8989 28.8961C26.3255 29.1086 23.4894 28.2223 21.8586 26.8398V41.7297H31.3244C34.8697 41.7297 37.7767 38.858 37.7767 35.2772V3.01608H28.3109V3.01562Z" fill="url(#paint4_linear_4502_74270)"/>
</g>
<defs>
<linearGradient id="paint0_linear_4502_74270" x1="39.6852" y1="24.8231" x2="55.617" y2="24.8231" gradientUnits="userSpaceOnUse">
<stop stop-color="#007940"/>
<stop offset="0.2285" stop-color="#00873F"/>
<stop offset="0.7433" stop-color="#40A737"/>
<stop offset="1" stop-color="#5CB531"/>
</linearGradient>
<linearGradient id="paint1_linear_4502_74270" x1="39.6849" y1="22.3395" x2="55.6175" y2="22.3395" gradientUnits="userSpaceOnUse">
<stop stop-color="#007940"/>
<stop offset="0.2285" stop-color="#00873F"/>
<stop offset="0.7433" stop-color="#40A737"/>
<stop offset="1" stop-color="#5CB531"/>
</linearGradient>
<linearGradient id="paint2_linear_4502_74270" x1="39.6847" y1="19.6375" x2="55.6174" y2="19.6375" gradientUnits="userSpaceOnUse">
<stop stop-color="#007940"/>
<stop offset="0.2285" stop-color="#00873F"/>
<stop offset="0.7433" stop-color="#40A737"/>
<stop offset="1" stop-color="#5CB531"/>
</linearGradient>
<linearGradient id="paint3_linear_4502_74270" x1="4.01874" y1="22.3395" x2="20.1968" y2="22.3395" gradientUnits="userSpaceOnUse">
<stop stop-color="#1F286F"/>
<stop offset="0.4751" stop-color="#004E94"/>
<stop offset="0.8261" stop-color="#0066B1"/>
<stop offset="1" stop-color="#006FBC"/>
</linearGradient>
<linearGradient id="paint4_linear_4502_74270" x1="21.7667" y1="22.3394" x2="37.4795" y2="22.3394" gradientUnits="userSpaceOnUse">
<stop stop-color="#6C2C2F"/>
<stop offset="0.1735" stop-color="#882730"/>
<stop offset="0.5731" stop-color="#BE1833"/>
<stop offset="0.8585" stop-color="#DC0436"/>
<stop offset="1" stop-color="#E60039"/>
</linearGradient>
<clipPath id="clip0_4502_74270">
<rect width="58" height="44.8594" fill="white" transform="translate(0.800049)"/>
</clipPath>
</defs>
</svg>
