<svg width="16" height="14" viewBox="0 0 16 14" fill="none" xmlns="http://www.w3.org/2000/svg">
<path d="M12 -0.000976562H4C1.6 -0.000976562 0 1.19902 0 3.99902V9.59902C0 12.399 1.6 13.599 4 13.599H12C14.4 13.599 16 12.399 16 9.59902V3.99902C16 1.19902 14.4 -0.000976562 12 -0.000976562ZM12.376 4.87102L9.872 6.87102C9.344 7.29502 8.672 7.50302 8 7.50302C7.328 7.50302 6.648 7.29502 6.128 6.87102L3.624 4.87102C3.368 4.66302 3.328 4.27902 3.528 4.02302C3.736 3.76702 4.112 3.71902 4.368 3.92702L6.872 5.92702C7.48 6.41502 8.512 6.41502 9.12 5.92702L11.624 3.92702C11.88 3.71902 12.264 3.75902 12.464 4.02302C12.672 4.27902 12.632 4.66302 12.376 4.87102Z" fill="#5B26CF"/>
</svg>
