<svg width="19" height="19" viewBox="0 0 19 19" fill="none" xmlns="http://www.w3.org/2000/svg">
<path d="M6.53809 14.332H6.16309C3.16309 14.332 1.66309 13.582 1.66309 9.83203V6.08203C1.66309 3.08203 3.16309 1.58203 6.16309 1.58203H12.1631C15.1631 1.58203 16.6631 3.08203 16.6631 6.08203V9.83203C16.6631 12.832 15.1631 14.332 12.1631 14.332H11.7881C11.5556 14.332 11.3306 14.4445 11.1881 14.632L10.0631 16.132C9.56809 16.792 8.75809 16.792 8.26309 16.132L7.13809 14.632C7.01809 14.467 6.74059 14.332 6.53809 14.332Z" stroke="#84828A" stroke-width="1.3" stroke-miterlimit="10" stroke-linecap="round" stroke-linejoin="round"/>
<path d="M5.41309 6.08203H12.9131" stroke="#84828A" stroke-width="1.3" stroke-linecap="round" stroke-linejoin="round"/>
<path d="M5.41309 9.83203H9.91309" stroke="#84828A" stroke-width="1.3" stroke-linecap="round" stroke-linejoin="round"/>
</svg>
