<svg width="15" height="16" viewBox="0 0 15 16" fill="none" xmlns="http://www.w3.org/2000/svg">
<path d="M13.7498 8.53672C13.7498 9.96797 13.0123 11.2367 11.8748 12.0367L11.0373 13.8805C10.8436 14.2992 10.2811 14.3805 9.9873 14.0242L9.0623 12.9117C7.8998 12.9117 6.83105 12.518 6.01855 11.8617L6.39355 11.418C9.28105 11.1992 11.5623 8.91172 11.5623 6.12422C11.5623 5.64922 11.4936 5.18047 11.3686 4.73047C12.7873 5.48047 13.7498 6.90547 13.7498 8.53672Z" fill="#84828A"/>
<path d="M10.1875 4.29375C9.45625 2.79375 7.825 1.75 5.9375 1.75C3.35 1.75 1.25 3.70625 1.25 6.125C1.25 7.55625 1.9875 8.825 3.125 9.625L3.9625 11.4688C4.15625 11.8875 4.71875 11.9625 5.0125 11.6125L5.35625 11.2L5.9375 10.5C8.525 10.5 10.625 8.54375 10.625 6.125C10.625 5.46875 10.4687 4.85 10.1875 4.29375ZM7.5 6.59375H4.375C4.11875 6.59375 3.90625 6.38125 3.90625 6.125C3.90625 5.86875 4.11875 5.65625 4.375 5.65625H7.5C7.75625 5.65625 7.96875 5.86875 7.96875 6.125C7.96875 6.38125 7.75625 6.59375 7.5 6.59375Z" fill="#84828A"/>
</svg>
