<svg width="22" height="22" viewBox="0 0 22 22" fill="none" xmlns="http://www.w3.org/2000/svg">
<path d="M14.6668 1.8335H7.3335C3.66683 1.8335 1.8335 3.66683 1.8335 7.3335V19.2502C1.8335 19.7543 2.246 20.1668 2.75016 20.1668H14.6668C18.3335 20.1668 20.1668 18.3335 20.1668 14.6668V7.3335C20.1668 3.66683 18.3335 1.8335 14.6668 1.8335Z" stroke="#ADABB1" stroke-width="1.375" stroke-linecap="round" stroke-linejoin="round"/>
<path d="M11.8341 7.18729L7.07656 11.9448C6.89322 12.1281 6.71906 12.4856 6.6824 12.7423L6.42573 14.5573C6.33406 15.2173 6.79239 15.6756 7.45239 15.584L9.26738 15.3273C9.52404 15.2906 9.88157 15.1165 10.0649 14.9331L14.8224 10.1756C15.6382 9.35979 16.0324 8.40646 14.8224 7.19646C13.6124 5.97729 12.6591 6.36229 11.8341 7.18729Z" stroke="#ADABB1" stroke-width="1.375" stroke-miterlimit="10" stroke-linecap="round" stroke-linejoin="round"/>
<path d="M11.1558 7.86572C11.5591 9.30489 12.6866 10.4416 14.1349 10.8449" stroke="#ADABB1" stroke-width="1.375" stroke-miterlimit="10" stroke-linecap="round" stroke-linejoin="round"/>
</svg>
