<svg width="18" height="17" viewBox="0 0 18 17" fill="none" xmlns="http://www.w3.org/2000/svg">
<path d="M10.9098 14.804L10.8887 14.7982L5.44218 13.3057L5.387 13.2906V13.2334V8.93554V8.86054H5.462H6.7201H6.73362L6.7463 8.86527L11.2942 10.561L11.2948 10.5612C11.5894 10.6738 11.7884 10.9595 11.7884 11.2798V11.3567L11.7115 11.3548L11.7134 11.2798L11.7115 11.3548L11.7115 11.3548L11.7112 11.3548L11.7104 11.3548L11.707 11.3547L11.6938 11.3543L11.6437 11.353C11.6004 11.3517 11.5383 11.3499 11.4631 11.3475C11.3127 11.3426 11.1097 11.3352 10.8992 11.3254C10.6889 11.3157 10.4705 11.3034 10.2898 11.2886C10.1994 11.2813 10.1178 11.2732 10.0509 11.2644C9.98586 11.2559 9.92937 11.2461 9.8925 11.2338L10.9098 14.804ZM10.9098 14.804L10.9308 14.7975L15.5646 13.3597L15.648 13.3339L15.6099 13.2554C15.4731 12.9733 15.1744 12.7677 14.8391 12.7677H10.6585C10.244 12.7677 9.83789 12.7063 9.44755 12.5762L9.44746 12.5761L7.65882 11.9824L8.10391 10.6401L9.89242 11.2338L10.9098 14.804ZM13.2013 11.2798V11.3548H13.2763H14.8391C16.0949 11.3548 17.1084 12.3684 17.1084 13.6241V14.3504L10.9307 16.2809L5.48203 14.7709L5.387 14.7445V14.8431V15.8934H0.848438V7.44769H6.98786L11.7887 9.24019C11.7887 9.24021 11.7887 9.24022 11.7888 9.24023C12.6346 9.55748 13.2013 10.3734 13.2013 11.2798ZM3.89915 14.4805H3.97415V14.4055V8.93554V8.86054H3.89915H2.33629H2.26129V8.93554V14.4055V14.4805H2.33629H3.89915ZM8.66271 4.24698C8.66271 2.13166 10.3795 0.414844 12.4948 0.414844C14.6102 0.414844 16.327 2.13166 16.327 4.24698C16.327 6.3623 14.6102 8.07911 12.4948 8.07911C10.3795 8.07911 8.66271 6.3623 8.66271 4.24698ZM10.0756 4.24698C10.0756 5.58557 11.1563 6.66626 12.4948 6.66626C13.8334 6.66626 14.9141 5.58557 14.9141 4.24698C14.9141 2.90839 13.8334 1.8277 12.4948 1.8277C11.1563 1.8277 10.0756 2.90839 10.0756 4.24698Z" fill="#CECDD0" stroke="#F7F7F7" stroke-width="0.15"/>
</svg>
