<svg width="18" height="27" viewBox="0 0 18 27" fill="none" xmlns="http://www.w3.org/2000/svg">
<path d="M2.26683 23V15.3842H0.478499V13.1025H2.26683V10.8825H0.478499V8.60083H2.26683V0.984999H7.10767L9.51267 8.60083H12.3185V0.984999H15.741V8.60083H17.4985V10.8825H15.741V13.1025H17.4985V15.3842H15.741V23H10.8693L8.40267 15.3842H5.68933V23H2.26683ZM5.68933 13.1025H7.72433L7.046 10.8825H5.62767L5.68933 13.1025ZM12.411 18.19H12.5652L12.4418 15.3842H11.6093L12.411 18.19ZM5.566 8.60083H6.42933L5.53517 5.64083H5.41183L5.566 8.60083ZM10.9618 13.1025H12.3802L12.3185 10.8825H10.2527L10.9618 13.1025ZM18.6475" fill="#322E3C"/>
</svg>
