<svg width="11" height="11" viewBox="0 0 11 11" fill="none" xmlns="http://www.w3.org/2000/svg">
<path d="M8.25012 3.28102C8.22262 3.27643 8.19053 3.27643 8.16303 3.28102C7.53053 3.2581 7.02637 2.74018 7.02637 2.09852C7.02637 1.4431 7.55345 0.916016 8.20887 0.916016C8.86428 0.916016 9.39137 1.44768 9.39137 2.09852C9.38678 2.74018 8.88262 3.2581 8.25012 3.28102Z" stroke="#5B5863" stroke-width="0.6875" stroke-linecap="round" stroke-linejoin="round"/>
<path d="M7.7784 6.61776C8.40632 6.72317 9.0984 6.61317 9.58423 6.28776C10.2305 5.85692 10.2305 5.15109 9.58423 4.72026C9.09382 4.39484 8.39257 4.28484 7.76465 4.39484" stroke="#5B5863" stroke-width="0.6875" stroke-linecap="round" stroke-linejoin="round"/>
<path d="M2.73598 3.28102C2.76348 3.27643 2.79556 3.27643 2.82306 3.28102C3.45556 3.2581 3.95973 2.74018 3.95973 2.09852C3.95973 1.4431 3.43264 0.916016 2.77723 0.916016C2.12181 0.916016 1.59473 1.44768 1.59473 2.09852C1.59931 2.74018 2.10348 3.2581 2.73598 3.28102Z" stroke="#5B5863" stroke-width="0.6875" stroke-linecap="round" stroke-linejoin="round"/>
<path d="M3.20849 6.61776C2.58057 6.72317 1.88849 6.61317 1.40266 6.28776C0.756406 5.85692 0.756406 5.15109 1.40266 4.72026C1.89307 4.39484 2.59432 4.28484 3.22224 4.39484" stroke="#5B5863" stroke-width="0.6875" stroke-linecap="round" stroke-linejoin="round"/>
<path d="M5.50012 6.70582C5.47262 6.70124 5.44053 6.70124 5.41303 6.70582C4.78053 6.68291 4.27637 6.16499 4.27637 5.52332C4.27637 4.8679 4.80345 4.34082 5.45887 4.34082C6.11428 4.34082 6.64137 4.87249 6.64137 5.52332C6.63678 6.16499 6.13262 6.68749 5.50012 6.70582Z" stroke="#5B5863" stroke-width="0.6875" stroke-linecap="round" stroke-linejoin="round"/>
<path d="M4.16633 8.15051C3.52008 8.58134 3.52008 9.28717 4.16633 9.71801C4.89966 10.2084 6.10049 10.2084 6.83383 9.71801C7.48008 9.28717 7.48008 8.58134 6.83383 8.15051C6.10508 7.66467 4.89966 7.66467 4.16633 8.15051Z" stroke="#5B5863" stroke-width="0.6875" stroke-linecap="round" stroke-linejoin="round"/>
</svg>
