<svg width="9" height="9" viewBox="0 0 9 9" fill="none" xmlns="http://www.w3.org/2000/svg">
<path d="M9 4.5C9 5.69347 8.52589 6.83807 7.68198 7.68198C6.83807 8.52589 5.69347 9 4.5 9C3.30653 9 2.16193 8.52589 1.31802 7.68198C0.474106 6.83807 0 5.69347 0 4.5C0 3.30653 0.474106 2.16193 1.31802 1.31802C2.16193 0.474106 3.30653 0 4.5 0C5.69347 0 6.83807 0.474106 7.68198 1.31802C8.52589 2.16193 9 3.30653 9 4.5ZM3.0915 3.39356H3.55556C3.63319 3.39356 3.69506 3.33 3.70519 3.25294C3.75581 2.88394 4.00894 2.61506 4.46006 2.61506C4.84594 2.61506 5.19919 2.808 5.19919 3.27206C5.19919 3.62925 4.98881 3.7935 4.65637 4.04325C4.27781 4.31831 3.978 4.6395 3.99938 5.16094L4.00106 5.283C4.00165 5.3199 4.01673 5.3551 4.04304 5.38099C4.06935 5.40687 4.10478 5.42138 4.14169 5.42137H4.59787C4.63517 5.42137 4.67094 5.40656 4.69731 5.38019C4.72368 5.35381 4.7385 5.31805 4.7385 5.28075V5.22169C4.7385 4.81781 4.89206 4.70025 5.30662 4.38581C5.64919 4.12537 6.00638 3.83625 6.00638 3.22931C6.00638 2.37937 5.28863 1.96875 4.50281 1.96875C3.79013 1.96875 3.00938 2.30062 2.95594 3.25462C2.95517 3.27279 2.95812 3.29092 2.96462 3.3079C2.97111 3.32488 2.98101 3.34036 2.99371 3.35337C3.00641 3.36638 3.02164 3.37666 3.03845 3.38357C3.05527 3.39049 3.07332 3.39389 3.0915 3.39356ZM4.39931 7.01775C4.74244 7.01775 4.97813 6.79612 4.97813 6.49631C4.97813 6.18581 4.74188 5.96756 4.39931 5.96756C4.07081 5.96756 3.83175 6.18581 3.83175 6.49631C3.83175 6.79612 4.07081 7.01775 4.39988 7.01775H4.39931Z" fill="#E56EB8"/>
</svg>
