<svg width="12" height="12" viewBox="0 0 12 12" fill="none" xmlns="http://www.w3.org/2000/svg">
<path fill-rule="evenodd" clip-rule="evenodd" d="M5.00878 0L4.5766 0.00309811L0 3.12981L0.00309802 3.77111L4.57893 6.84051L5.00491 6.84361L9.72325 3.77421L9.72557 3.12671L5.00878 0ZM0.90928 3.44659L4.79812 0.790004L8.807 3.44659L4.79812 6.05515L0.90928 3.44659ZM4.5797 8.77679L0.0580885 5.74457H1.44834L4.79812 7.99066L8.25167 5.74457H9.67136L9.05175 6.14732C8.34773 6.07558 7.64035 6.2469 7.04717 6.63281C6.45399 7.01873 6.01073 7.59601 5.79104 8.26871L5.00646 8.77989L4.5797 8.77679ZM5.64311 9.37782L4.79889 9.92772L1.44757 7.68086H0.0580885L4.5797 10.7131L5.00569 10.7162L5.79569 10.2027C5.70756 9.93594 5.65622 9.65843 5.64311 9.37782ZM7.44695 7.29825C7.70034 7.11991 7.98683 6.99406 8.28957 6.92809C8.59232 6.86212 8.9052 6.85737 9.20981 6.91411C9.51442 6.97086 9.8046 7.08796 10.0633 7.25851C10.322 7.42907 10.5439 7.64964 10.7161 7.90725C10.8883 8.16487 11.0072 8.45431 11.0658 8.75856C11.1245 9.0628 11.1217 9.37571 11.0576 9.67886C10.9935 9.98201 10.8695 10.2693 10.6927 10.5238C10.516 10.7783 10.2901 10.9948 10.0284 11.1607C9.51615 11.4855 8.8972 11.5971 8.30377 11.4717C7.71035 11.3462 7.18949 10.9937 6.85246 10.4895C6.51543 9.98518 6.38895 9.3691 6.50003 8.77283C6.61111 8.17655 6.95095 7.64734 7.44695 7.29825ZM8.76208 10.2546L10.1485 8.4058L9.52885 7.94109L8.38257 9.46999L7.70409 8.92782L7.2208 9.53195L8.21063 10.3243L8.76208 10.2546Z" fill="#5B5863"/>
</svg>
