<svg width="21" height="21" viewBox="0 0 21 21" fill="none" xmlns="http://www.w3.org/2000/svg">
<path d="M10.2474 17.5835H6.08073C3.58073 17.5835 1.91406 16.3335 1.91406 13.4168V7.58348C1.91406 4.66681 3.58073 3.41681 6.08073 3.41681H14.4141C16.9141 3.41681 18.5807 4.66681 18.5807 7.58348V10.0835" stroke="#090415" stroke-width="1.25" stroke-miterlimit="10" stroke-linecap="round" stroke-linejoin="round"/>
<path d="M14.4193 8L11.8109 10.0833C10.9526 10.7667 9.54427 10.7667 8.68593 10.0833L6.08594 8" stroke="#090415" stroke-width="1.25" stroke-miterlimit="10" stroke-linecap="round" stroke-linejoin="round"/>
<path d="M16.2605 12.8079L13.3105 15.7579C13.1938 15.8746 13.0855 16.0912 13.0605 16.2496L12.9021 17.3746C12.8438 17.7829 13.1271 18.0662 13.5355 18.0079L14.6605 17.8496C14.8188 17.8246 15.0438 17.7162 15.1522 17.5996L18.1022 14.6496C18.6105 14.1412 18.8522 13.5496 18.1022 12.7996C17.3605 12.0579 16.7688 12.2996 16.2605 12.8079Z" stroke="#090415" stroke-width="1.25" stroke-miterlimit="10" stroke-linecap="round" stroke-linejoin="round"/>
<path d="M15.8398 13.2327C16.0898 14.1327 16.7898 14.8327 17.6898 15.0827" stroke="#090415" stroke-width="1.25" stroke-miterlimit="10" stroke-linecap="round" stroke-linejoin="round"/>
</svg>
