<svg width="26" height="19" viewBox="0 0 26 19" fill="none" xmlns="http://www.w3.org/2000/svg">
<path d="M21.4 10.6991C21.06 10.6991 20.7752 10.5839 20.5456 10.3535C20.3152 10.1239 20.2 9.83914 20.2 9.49914C20.2 9.15914 20.3152 8.87394 20.5456 8.64354C20.7752 8.41394 21.06 8.29914 21.4 8.29914H23.8C24.14 8.29914 24.4248 8.41394 24.6544 8.64354C24.8848 8.87394 25 9.15914 25 9.49914C25 9.83914 24.8848 10.1239 24.6544 10.3535C24.4248 10.5839 24.14 10.6991 23.8 10.6991H21.4ZM20.68 18.3791L18.76 16.9391C18.48 16.7391 18.32 16.4791 18.28 16.1591C18.24 15.8391 18.32 15.5391 18.52 15.2591C18.72 14.9791 18.98 14.8191 19.3 14.7791C19.62 14.7391 19.92 14.8191 20.2 15.0191L22.12 16.4591C22.4 16.6591 22.56 16.9191 22.6 17.2391C22.64 17.5591 22.56 17.8591 22.36 18.1391C22.16 18.4191 21.9 18.5791 21.58 18.6191C21.26 18.6591 20.96 18.5791 20.68 18.3791ZM20.2 3.97914C19.92 4.17914 19.62 4.25914 19.3 4.21914C18.98 4.17914 18.72 4.01914 18.52 3.73914C18.32 3.45914 18.24 3.15914 18.28 2.83914C18.32 2.51914 18.48 2.25914 18.76 2.05914L20.68 0.61914C20.96 0.41914 21.26 0.339141 21.58 0.379141C21.9 0.419141 22.16 0.579141 22.36 0.859141C22.56 1.13914 22.64 1.43914 22.6 1.75914C22.56 2.07914 22.4 2.33914 22.12 2.53914L20.2 3.97914ZM4.6 17.8991V13.0991H3.4C2.74 13.0991 2.1752 12.8639 1.7056 12.3935C1.2352 11.9239 1 11.3591 1 10.6991V8.29914C1 7.63914 1.2352 7.07394 1.7056 6.60354C2.1752 6.13394 2.74 5.89914 3.4 5.89914H8.2L12.37 3.37914C12.77 3.13914 13.1752 3.13914 13.5856 3.37914C13.9952 3.61914 14.2 3.96914 14.2 4.42914V14.5691C14.2 15.0291 13.9952 15.3791 13.5856 15.6191C13.1752 15.8591 12.77 15.8591 12.37 15.6191L8.2 13.0991H7V17.8991H4.6ZM15.4 13.5191V5.47914C15.94 5.95914 16.3752 6.54434 16.7056 7.23474C17.0352 7.92434 17.2 8.67914 17.2 9.49914C17.2 10.3191 17.0352 11.0739 16.7056 11.7635C16.3752 12.4539 15.94 13.0391 15.4 13.5191ZM11.8 12.4391V6.55914L8.86 8.29914H3.4V10.6991H8.86L11.8 12.4391Z" fill="#322E3C" stroke="white" stroke-width="0.342375"/>
</svg>
