<svg width="17" height="19" viewBox="0 0 17 19" fill="none" xmlns="http://www.w3.org/2000/svg">
<path d="M12.6426 2.60938C12.4141 2.60938 12.1951 2.51863 12.0335 2.3571C11.872 2.19557 11.7812 1.97649 11.7812 1.74805C11.7812 1.51961 11.872 1.30053 12.0335 1.139C12.1951 0.977466 12.4141 0.886719 12.6426 0.886719H16.0879C16.3163 0.886719 16.5354 0.977466 16.6969 1.139C16.8585 1.30053 16.9492 1.51961 16.9492 1.74805V5.19336C16.9492 5.4218 16.8585 5.64088 16.6969 5.80241C16.5354 5.96394 16.3163 6.05469 16.0879 6.05469C15.8595 6.05469 15.6404 5.96394 15.4788 5.80241C15.3173 5.64088 15.2266 5.4218 15.2266 5.19336V3.82729L10.2369 8.81697C10.0754 8.97844 9.85632 9.06915 9.62793 9.06915C9.39954 9.06915 9.18049 8.97844 9.01897 8.81697L6.61328 6.41128L2.05427 10.9703C1.89182 11.1272 1.67425 11.214 1.44841 11.212C1.22257 11.2101 1.00654 11.1195 0.846846 10.9598C0.687149 10.8001 0.596564 10.5841 0.594601 10.3582C0.592639 10.1324 0.679456 9.91482 0.836354 9.75237L6.00432 4.5844C6.16585 4.42293 6.38489 4.33222 6.61328 4.33222C6.84167 4.33222 7.06072 4.42293 7.22224 4.5844L9.62793 6.99009L14.0086 2.60938H12.6426ZM2.30664 14.668V17.252C2.30664 17.4804 2.21589 17.6995 2.05436 17.861C1.89283 18.0225 1.67375 18.1133 1.44531 18.1133C1.21687 18.1133 0.997792 18.0225 0.836262 17.861C0.674731 17.6995 0.583984 17.4804 0.583984 17.252V14.668C0.583984 14.4395 0.674731 14.2204 0.836262 14.0589C0.997792 13.8974 1.21687 13.8066 1.44531 13.8066C1.67375 13.8066 1.89283 13.8974 2.05436 14.0589C2.21589 14.2204 2.30664 14.4395 2.30664 14.668ZM6.61328 11.2227C6.61328 10.9942 6.52253 10.7751 6.361 10.6136C6.19947 10.4521 5.98039 10.3613 5.75195 10.3613C5.52351 10.3613 5.30443 10.4521 5.1429 10.6136C4.98137 10.7751 4.89062 10.9942 4.89062 11.2227V17.252C4.89062 17.4804 4.98137 17.6995 5.1429 17.861C5.30443 18.0225 5.52351 18.1133 5.75195 18.1133C5.98039 18.1133 6.19947 18.0225 6.361 17.861C6.52253 17.6995 6.61328 17.4804 6.61328 17.252V11.2227ZM10.0586 12.084C10.287 12.084 10.5061 12.1747 10.6676 12.3363C10.8292 12.4978 10.9199 12.7169 10.9199 12.9453V17.252C10.9199 17.4804 10.8292 17.6995 10.6676 17.861C10.5061 18.0225 10.287 18.1133 10.0586 18.1133C9.83016 18.1133 9.61107 18.0225 9.44954 17.861C9.28801 17.6995 9.19727 17.4804 9.19727 17.252V12.9453C9.19727 12.7169 9.28801 12.4978 9.44954 12.3363C9.61107 12.1747 9.83016 12.084 10.0586 12.084ZM15.2266 8.63867C15.2266 8.41023 15.1358 8.19115 14.9743 8.02962C14.8128 7.86809 14.5937 7.77734 14.3652 7.77734C14.1368 7.77734 13.9177 7.86809 13.7562 8.02962C13.5947 8.19115 13.5039 8.41023 13.5039 8.63867V17.252C13.5039 17.4804 13.5947 17.6995 13.7562 17.861C13.9177 18.0225 14.1368 18.1133 14.3652 18.1133C14.5937 18.1133 14.8128 18.0225 14.9743 17.861C15.1358 17.6995 15.2266 17.4804 15.2266 17.252V8.63867Z" fill="white"/>
</svg>
