<svg width="18" height="18" viewBox="0 0 18 18" fill="none" xmlns="http://www.w3.org/2000/svg">
<path d="M15.75 4.48535C13.2525 4.23785 10.74 4.11035 8.235 4.11035C6.75 4.11035 5.265 4.18535 3.78 4.33535L2.25 4.48535" stroke="#84828A" stroke-width="1.125" stroke-linecap="round" stroke-linejoin="round"/>
<path d="M6.375 3.7275L6.54 2.745C6.66 2.0325 6.75 1.5 8.0175 1.5H9.9825C11.25 1.5 11.3475 2.0625 11.46 2.7525L11.625 3.7275" stroke="#84828A" stroke-width="1.125" stroke-linecap="round" stroke-linejoin="round"/>
<path d="M14.1375 6.85449L13.65 14.407C13.5675 15.5845 13.5 16.4995 11.4075 16.4995H6.59255C4.50005 16.4995 4.43255 15.5845 4.35005 14.407L3.86255 6.85449" stroke="#84828A" stroke-width="1.125" stroke-linecap="round" stroke-linejoin="round"/>
<path d="M7.74744 12.375H10.2449" stroke="#84828A" stroke-width="1.125" stroke-linecap="round" stroke-linejoin="round"/>
<path d="M7.125 9.375H10.875" stroke="#84828A" stroke-width="1.125" stroke-linecap="round" stroke-linejoin="round"/>
</svg>
