<svg width="32" height="32" viewBox="0 0 32 32" fill="none" xmlns="http://www.w3.org/2000/svg">
<path fill-rule="evenodd" clip-rule="evenodd" d="M25.4172 14.1544C25.4172 20.2345 20.4884 25.1633 14.4083 25.1633C8.3282 25.1633 3.39932 20.2345 3.39932 14.1544C3.39932 8.0743 8.3282 3.14542 14.4083 3.14542C20.4884 3.14542 25.4172 8.0743 25.4172 14.1544ZM23.2433 25.2135C20.8218 27.1505 17.7503 28.3088 14.4083 28.3088C6.59104 28.3088 0.253906 21.9716 0.253906 14.1544C0.253906 6.33713 6.59104 0 14.4083 0C22.2255 0 28.5627 6.33713 28.5627 14.1544C28.5627 17.4964 27.4044 20.5679 25.4674 22.9894L31.2474 28.7694C31.8616 29.3836 31.8616 30.3794 31.2474 30.9935C30.6333 31.6077 29.6375 31.6077 29.0233 30.9935L23.2433 25.2135Z" fill="#5B26CF"/>
<path d="M14.4083 25.1633C20.4884 25.1633 25.4172 20.2345 25.4172 14.1544C25.4172 8.0743 20.4884 3.14542 14.4083 3.14542C8.3282 3.14542 3.39932 8.0743 3.39932 14.1544C3.39932 20.2345 8.3282 25.1633 14.4083 25.1633Z" fill="#5B26CF"/>
</svg>
