<svg width="17" height="18" viewBox="0 0 17 18" fill="none" xmlns="http://www.w3.org/2000/svg">
<path d="M12.7172 0.25H4.28216C2.41841 0.25 0.904663 1.7725 0.904663 3.6275V15.9563C0.904663 17.5312 2.03341 18.1962 3.41591 17.435L7.68591 15.0638C8.14091 14.81 8.87591 14.81 9.32216 15.0638L13.5922 17.435C14.9747 18.205 16.1034 17.54 16.1034 15.9563V3.6275C16.0947 1.7725 14.5809 0.25 12.7172 0.25ZM11.1334 7.03125C10.2847 7.3375 9.39216 7.495 8.49966 7.495C7.60716 7.495 6.71466 7.3375 5.86591 7.03125C5.52466 6.90875 5.34966 6.5325 5.47216 6.19125C5.60341 5.85 5.97966 5.675 6.32091 5.7975C7.72966 6.305 9.27841 6.305 10.6872 5.7975C11.0284 5.675 11.4047 5.85 11.5272 6.19125C11.6497 6.5325 11.4747 6.90875 11.1334 7.03125Z" fill="#5B26CF"/>
</svg>
