<svg width="319" height="319" viewBox="0 0 319 319" fill="none" xmlns="http://www.w3.org/2000/svg">
<path d="M79.5434 95.8787L17.5234 131.683V59.7743L79.5434 23.9761V95.8787Z" fill="white"/>
<path d="M16.3047 132.385L17.5169 133.113L80.7555 96.6062L79.5433 95.8789L16.3047 132.385Z" fill="#FAFAFA"/>
<path d="M83.0523 19.2871L15.2266 58.4476V137.087L83.0523 97.927V19.2871ZM80.7555 96.6063L17.5234 133.113V59.7746L80.7555 23.2618V96.6063Z" fill="#F0F0F0"/>
<path d="M80.7552 96.6057L79.543 95.8784V23.9758L80.7552 23.2612V96.6057Z" fill="#E0E0E0"/>
<path d="M83.0518 19.2868L81.8141 18.585L13.9883 57.739L15.226 58.4472L83.0518 19.2868Z" fill="#FAFAFA"/>
<path d="M13.9883 57.7393L15.226 58.4474V137.087L13.9883 136.379V57.7393Z" fill="#E0E0E0"/>
<path d="M18.5352 93.882V95.3111L80.7593 59.3343L79.5471 58.6069L18.5352 93.882Z" fill="#FAFAFA"/>
<path d="M47.1836 42.6569L48.4149 41.9424V115.287L47.1836 114.579V42.6569Z" fill="#E0E0E0"/>
<path d="M50.7109 40.6216L48.4141 41.9422V115.287L50.7109 113.96V40.6216Z" fill="#F0F0F0"/>
<path d="M80.7577 59.334V61.9817L17.5 98.6412V95.9935L80.7577 59.334Z" fill="#F0F0F0"/>
<path d="M48.4179 78.0786L47.1865 77.3193L17.5195 94.4624V95.9936L48.4179 78.0786Z" fill="#FAFAFA"/>
<path d="M92.5273 46.3834L93.5545 46.9958L114.596 34.8483L113.569 34.2358L92.5273 46.3834Z" fill="#FAFAFA"/>
<path d="M113.569 34.2357L93.5547 45.7899V28.768L113.569 17.2202V34.2357Z" fill="white"/>
<path d="M116.527 13.2651L91.6445 27.652V50.3457L116.527 35.9652V13.2651ZM114.613 34.8487L93.5585 46.9707V28.7685L114.613 16.6465V34.8487Z" fill="#F0F0F0"/>
<path d="M114.594 34.8478L113.566 34.2353V17.2198L114.594 16.6201V34.8478Z" fill="#E0E0E0"/>
<path d="M116.528 13.2647L115.488 12.6714L90.5742 27.0519L91.6142 27.6516L116.528 13.2647Z" fill="#FAFAFA"/>
<path d="M90.5742 27.0518L91.6142 27.6515V50.3451L90.5742 49.7518V27.0518Z" fill="#E0E0E0"/>
<path d="M112.789 33.6039L94.332 44.2649V42.874L98.9448 32.2194L101.822 34.8863L101.42 37.3553L107.162 25.7246L112.789 32.2194V33.6039Z" fill="#F0F0F0"/>
<path d="M101.647 27.0771C101.249 27.3346 100.917 27.6829 100.68 28.0932C100.443 28.5036 100.306 28.9643 100.281 29.4377C100.281 30.3118 100.887 30.6627 101.647 30.2288C102.044 29.9695 102.375 29.62 102.612 29.2087C102.85 28.7974 102.987 28.336 103.012 27.8618C103.012 26.9942 102.399 26.6433 101.647 27.0771Z" fill="#F0F0F0"/>
<path d="M92.6719 81.7095L93.6991 82.322L114.747 70.1745L113.719 69.562L92.6719 81.7095Z" fill="#FAFAFA"/>
<path d="M113.72 69.5618L93.6992 81.116V64.0942L113.72 52.5464V69.5618Z" fill="white"/>
<path d="M116.679 48.5913L91.7969 62.9782V85.6719L116.679 71.2913V48.5913ZM114.765 70.1748L93.7109 82.2968V64.0947L114.765 51.9727V70.1748Z" fill="#F0F0F0"/>
<path d="M114.746 70.174L113.719 69.5615V52.546L114.746 51.9463V70.174Z" fill="#E0E0E0"/>
<path d="M116.68 48.5909L115.64 47.9976L90.7266 62.3845L91.7665 62.9778L116.68 48.5909Z" fill="#FAFAFA"/>
<path d="M90.7266 62.3848L91.7665 62.9781V85.6718L90.7266 85.0784V62.3848Z" fill="#E0E0E0"/>
<path d="M112.935 68.9365L94.4844 79.5911V78.2002L99.0971 67.5456L101.968 70.2125L101.573 72.6815L107.308 61.0508L112.935 67.5456V68.9365Z" fill="#F0F0F0"/>
<path d="M101.795 62.4031C101.397 62.6624 101.066 63.0119 100.829 63.4232C100.592 63.8345 100.455 64.296 100.43 64.7701C100.43 65.6378 101.068 65.9887 101.795 65.5548C102.192 65.2962 102.522 64.9477 102.76 64.5376C102.997 64.1274 103.134 63.6673 103.16 63.1942C103.16 62.3202 102.548 61.9693 101.795 62.4031Z" fill="#F0F0F0"/>
<path d="M199.59 93.7228L198.174 94.5713L176.105 81.8305L177.522 80.9819L199.59 93.7228Z" fill="#FAFAFA"/>
<path d="M177.523 80.9815L198.175 92.8994V39.4222L177.523 27.5107V80.9815Z" fill="white"/>
<path d="M173.434 83.3744L200.868 99.2032V37.8722L173.434 22.0435V83.3744ZM176.088 26.6817L198.156 39.4417V94.5904L176.088 81.8304V26.6817Z" fill="#F0F0F0"/>
<path d="M176.105 81.8299L177.522 80.9813V27.5106L176.105 26.6812V81.8299Z" fill="#E0E0E0"/>
<path d="M173.426 22.0432L174.868 21.2202L202.289 37.049L200.847 37.872L173.426 22.0432Z" fill="#FAFAFA"/>
<path d="M202.29 37.0488L200.848 37.8718V99.2092L202.29 98.3798V37.0488Z" fill="#E0E0E0"/>
<path d="M179.602 79.3292L196.107 88.8546V41.9297L179.602 32.3979V79.3292Z" fill="#F0F0F0"/>
<path d="M179.602 79.3292L196.107 88.8546V41.9297L179.602 32.3979V79.3292Z" fill="#F0F0F0"/>
<path d="M196.107 72.6173C195.341 72.8835 194.55 73.0695 193.746 73.1724C191.059 73.5567 188.322 73.3808 185.707 72.6556C183.71 72.0942 181.713 71.2265 179.602 71.6603V79.3163L181.835 80.5923C182.621 79.3244 183.667 78.2372 184.903 77.4023C188.093 75.4309 191.341 76.9111 194.607 76.6367C195.113 76.5895 195.615 76.502 196.107 76.3752V72.6173Z" fill="#FAFAFA"/>
<path d="M196.105 64.8147C192.411 64.1767 188.621 63.8003 185.987 60.5848C183.862 57.9945 182.867 53.9241 182.159 49.8728C181.45 45.8215 180.978 41.5788 179.638 37.9996C179.638 37.9613 179.607 37.9294 179.594 37.8911V62.352C179.798 62.7412 180.008 63.1304 180.232 63.5004C182.656 67.59 186.229 70.6269 190.312 69.9251C192.226 69.5933 194.204 68.4705 196.105 68.0111V64.8147Z" fill="#FAFAFA"/>
<path d="M196.109 54.8683C193.277 52.0037 191.758 46.6572 192.454 41.164C192.505 40.7557 192.568 40.3474 192.639 39.9455L186.297 36.2578C186.297 36.8512 186.342 37.4381 186.354 38.0315C186.418 41.4703 186.354 44.992 186.871 48.2395C187.777 53.6752 190.495 58.0136 194.106 59.7936C194.746 60.1048 195.421 60.3403 196.116 60.4954L196.109 54.8683Z" fill="#FAFAFA"/>
<path d="M227.176 227.503L292.271 265.043V190.991L227.176 227.503Z" fill="#E0E0E0"/>
<g opacity="0.15">
<path d="M227.176 227.503L292.271 265.043V190.991L227.176 227.503Z" fill="black"/>
</g>
<path d="M230.258 41.0674V225.775L295.334 263.308V78.6009L230.258 41.0674ZM257.756 138.643L238.124 127.293V53.2468L257.756 64.5968V138.643ZM286.274 155.097L266.573 143.76V69.7072L286.274 81.0253V155.097Z" fill="#455A64"/>
<path d="M266.574 143.785L264.449 145.017L286.275 157.585V155.097L266.574 143.785Z" fill="#263238"/>
<path d="M238.123 127.325L235.992 128.556L257.754 141.131L259.879 139.9L238.123 127.325Z" fill="#263238"/>
<path d="M238.126 127.325V53.247L235.988 52.0156L235.995 128.556L238.126 127.325Z" fill="#37474F"/>
<path d="M264.447 145.017L257.754 141.132V64.6226L264.447 68.508V145.017Z" fill="#455A64"/>
<path d="M264.449 145.016L266.574 143.785V69.7068L264.449 68.5073V145.016Z" fill="#37474F"/>
<path opacity="0.1" d="M264.449 155.244L286.275 167.806V246.688L264.449 234.12V155.244Z" fill="black"/>
<path d="M265.945 160.207L282.827 169.917V240.595L265.945 230.885V160.207Z" fill="#455A64"/>
<path d="M286.273 167.806L282.828 169.918V240.596L286.273 246.688V167.806Z" fill="#37474F"/>
<path d="M264.449 155.244L265.949 160.207V230.885L264.449 234.12V155.244Z" fill="#37474F"/>
<path d="M264.449 234.119L265.949 230.885L282.83 240.595L286.275 246.688L264.449 234.119Z" fill="#263238"/>
<path opacity="0.1" d="M235.988 138.777L257.757 151.352L257.75 230.234L235.988 217.659V138.777Z" fill="black"/>
<path d="M237.488 143.741L254.312 153.464V224.141L237.488 214.425V143.741Z" fill="#455A64"/>
<path d="M257.754 151.352L254.309 153.464V224.141L257.747 230.234L257.754 151.352Z" fill="#37474F"/>
<path d="M235.988 138.777L237.488 143.74V214.425L235.988 217.659V138.777Z" fill="#37474F"/>
<path d="M235.988 217.659L237.488 214.425L254.312 224.142L257.75 230.234L235.988 217.659Z" fill="#263238"/>
<path d="M293.359 159.806L292.268 160.437L292.262 178.544L293.359 177.912V159.806Z" fill="#E0E0E0"/>
<path d="M292.273 160.437L286.391 157.043V175.149L292.267 178.544L292.273 160.437Z" fill="#FAFAFA"/>
<path opacity="0.05" d="M286.39 162.051L288.942 163.538V166.479C288.942 166.54 288.926 166.601 288.896 166.654C288.865 166.707 288.822 166.751 288.769 166.782C288.716 166.813 288.656 166.83 288.594 166.83C288.533 166.831 288.472 166.815 288.419 166.785L286.371 165.599L286.39 162.051Z" fill="black"/>
<path d="M286.391 157.043L287.482 156.411L293.364 159.805L292.273 160.437L286.391 157.043Z" fill="#EBEBEB"/>
<path d="M290.015 162.906L287.316 164.463L286.238 162.587L288.937 161.03C289.025 160.993 289.121 160.978 289.216 160.988C289.311 160.998 289.402 161.032 289.479 161.088C289.701 161.233 289.885 161.428 290.017 161.657C290.149 161.887 290.225 162.144 290.239 162.409C290.249 162.504 290.233 162.6 290.194 162.687C290.155 162.775 290.093 162.85 290.015 162.906Z" fill="#E0E0E0"/>
<path opacity="0.1" d="M288.964 163.513L287.988 164.08V162.792L286.941 162.185L287.924 161.618L288.964 162.224V163.513Z" fill="black"/>
<path d="M287.66 162.99L287.653 165.822L276.871 159.595V156.769L287.66 162.99Z" fill="#FAFAFA"/>
<path d="M287.659 162.989L288.635 162.428V165.254L287.652 165.822L287.659 162.989Z" fill="#E0E0E0"/>
<path d="M276.871 156.769L277.854 156.201L288.636 162.428L287.66 162.989L276.871 156.769Z" fill="#EBEBEB"/>
<path d="M290.293 170.881C290.274 170.537 290.175 170.203 290.003 169.905C289.831 169.607 289.592 169.353 289.304 169.165C288.755 168.846 288.309 169.101 288.309 169.733C288.338 170.254 288.55 170.749 288.908 171.13V172.98C288.915 173.096 288.949 173.208 289.008 173.308C289.067 173.408 289.148 173.492 289.246 173.554L289.361 173.624C289.546 173.733 289.693 173.624 289.693 173.433V171.583C290.069 171.621 290.293 171.347 290.293 170.881Z" fill="#455A64"/>
<path d="M238.121 53.2466L257.752 64.6221V138.668L238.121 127.325V53.2466Z" fill="#5B26CF"/>
<path opacity="0.4" d="M238.121 53.2466L257.752 64.6221V138.668L238.121 127.325V53.2466Z" fill="white"/>
<path d="M266.574 69.707L286.276 81.0443V155.097L266.574 143.792V69.707Z" fill="#5B26CF"/>
<path opacity="0.4" d="M266.574 69.707L286.276 81.0443V155.097L266.574 143.792V69.707Z" fill="white"/>
<path opacity="0.2" d="M252.476 61.5665L238.121 75.9215V79.6921L254.862 62.9509L252.476 61.5665ZM243.812 56.5454L238.121 62.2364V70.0136L248.737 59.3973L243.812 56.5454ZM251.468 135.019L257.752 128.748V124.977L249.076 133.654L251.468 135.019ZM266.576 69.6882V69.886L266.703 69.7648L266.576 69.6882ZM245.93 131.817L257.752 120.014V116.243L243.538 130.458L245.93 131.817ZM271.89 72.7442L266.576 78.0588V81.8357L274.283 74.1223L271.89 72.7442ZM280.822 77.8482L266.608 92.0629V99.8401L285.748 80.7001L280.822 77.8482ZM238.159 98.3217L257.752 78.7287V68.9035L238.121 88.5347L238.159 98.3217ZM266.608 141.827L286.309 122.125V112.332L266.57 132.065L266.608 141.827ZM272.19 146.931L286.309 132.812V129.041L269.791 145.553L272.19 146.931ZM266.57 119.943L286.271 100.229V96.4587L266.57 116.16V119.943ZM238.121 127.338L238.759 127.708L257.752 108.696V100.918L238.121 120.581V127.338ZM281.301 152.258L286.271 147.288V139.498L276.363 149.406L281.301 152.258ZM238.121 110.316L257.752 90.672V86.9015L238.121 106.545V110.316ZM266.57 107.439V111.209L286.271 91.5078V87.7245L266.57 107.439Z" fill="white"/>
<path d="M298.448 261.515L295.348 263.308V78.6004L298.448 76.814V261.515Z" fill="#263238"/>
<path d="M233.352 39.2744L298.447 76.8143L295.347 78.6007L230.258 41.0672L233.352 39.2744Z" fill="#37474F"/>
<path d="M230.257 225.775L227.176 227.503V39.2871L230.251 41.0607L230.257 225.775Z" fill="#E0E0E0"/>
<path d="M227.175 227.504L217.758 222.062V22.9736L301.699 71.3851V270.46L292.27 265.044V76.8272L227.181 39.2873L227.175 227.504Z" fill="#F5F5F5"/>
<path d="M218.396 24.0774L301.061 71.7551V269.363L292.908 264.674V76.4636L292.589 76.2786L227.513 38.7386L226.556 38.19V226.4L218.415 221.698V24.0774M217.777 22.9737V222.068L227.194 227.504V39.2937L292.27 76.8336V265.044L301.699 270.46V71.4042L217.758 22.9673L217.777 22.9737Z" fill="#E0E0E0"/>
<path d="M217.758 22.9733L301.699 71.3847L304.724 69.6302L220.782 21.2188L217.758 22.9733Z" fill="#FAFAFA"/>
<path d="M301.703 270.46V71.3849L304.727 69.6304V268.718L301.703 270.46Z" fill="#E0E0E0"/>
<path d="M189.042 221.386C184.462 216.658 181.769 204.766 186.235 201.015H208.98C213.446 204.766 210.76 216.646 206.179 221.38L206.058 221.507L205.898 221.667C205.771 221.794 205.63 221.916 205.484 222.037L205.375 222.126C205.26 222.215 205.152 222.305 205.031 222.388C204.84 222.526 204.642 222.654 204.437 222.77C200.667 224.972 194.555 224.972 190.784 222.77C190.576 222.656 190.376 222.528 190.184 222.388L189.865 222.139L189.731 222.03C189.585 221.916 189.457 221.794 189.33 221.673L189.151 221.494L189.042 221.386Z" fill="#EBEBEB"/>
<path d="M207.01 199.534C212.197 202.558 212.197 207.471 207.01 210.501C201.823 213.532 193.401 213.532 188.214 210.501C183.027 207.471 183.027 202.558 188.214 199.534C193.401 196.51 201.817 196.504 207.01 199.534Z" fill="#FAFAFA"/>
<path d="M204.51 200.97C208.338 203.197 208.338 206.801 204.51 209.028C200.682 211.254 194.525 211.254 190.71 209.028C186.895 206.801 186.882 203.197 190.71 200.97C194.538 198.743 200.701 198.762 204.51 200.97Z" fill="#E0E0E0"/>
<path d="M190.707 204.798C194.535 202.578 200.698 202.578 204.507 204.798C205.432 205.304 206.217 206.032 206.791 206.916C206.217 207.8 205.432 208.528 204.507 209.034C200.679 211.261 194.523 211.261 190.707 209.034C189.783 208.53 189 207.801 188.43 206.916C189 206.031 189.783 205.303 190.707 204.798Z" fill="#EBEBEB"/>
<path d="M196.079 174.48C194.337 176.394 189.495 176.891 187.485 171.787C185.603 167.002 183.574 162.466 183.019 160.705C182.937 160.476 182.903 160.233 182.917 159.99C182.932 159.747 182.995 159.509 183.104 159.291C183.212 159.073 183.363 158.879 183.548 158.721C183.733 158.563 183.948 158.444 184.18 158.37C184.18 158.37 184.32 155.742 188.774 157.522C193.227 159.302 196.372 161.988 198.344 166.384C200.315 170.779 199.052 173.893 196.079 174.48Z" fill="#E0E0E0"/>
<path opacity="0.45" d="M196.079 174.48C194.337 176.394 189.495 176.891 187.485 171.787C185.603 167.002 183.574 162.466 183.019 160.705C182.937 160.476 182.903 160.233 182.917 159.99C182.932 159.747 182.995 159.509 183.104 159.291C183.212 159.073 183.363 158.879 183.548 158.721C183.733 158.563 183.948 158.444 184.18 158.37C184.18 158.37 184.32 155.742 188.774 157.522C193.227 159.302 196.372 161.988 198.344 166.384C200.315 170.779 199.052 173.893 196.079 174.48Z" fill="white"/>
<path d="M198.004 181.23C197.928 180.337 197.8 179.448 197.621 178.57C197.253 176.824 196.758 175.108 196.141 173.434C194.889 170.024 193.151 166.814 190.98 163.902C189.774 162.243 188.416 160.701 186.922 159.296C186.878 159.257 186.839 159.359 186.871 159.391C191.867 164.601 195.336 171.083 196.901 178.129C197.124 179.099 197.328 180.075 197.507 181.051C197.685 182.028 197.794 183.048 197.96 184.044C197.96 184.146 198.132 184.203 198.138 184.044C198.166 183.104 198.121 182.163 198.004 181.23Z" fill="#E0E0E0"/>
<path opacity="0.1" d="M198.004 181.23C197.928 180.337 197.8 179.448 197.621 178.57C197.253 176.824 196.758 175.108 196.141 173.434C194.889 170.024 193.151 166.814 190.98 163.902C189.774 162.243 188.416 160.701 186.922 159.296C186.878 159.257 186.839 159.359 186.871 159.391C191.867 164.601 195.336 171.083 196.901 178.129C197.124 179.099 197.328 180.075 197.507 181.051C197.685 182.028 197.794 183.048 197.96 184.044C197.96 184.146 198.132 184.203 198.138 184.044C198.166 183.104 198.121 182.163 198.004 181.23Z" fill="black"/>
<path d="M199.501 173.159C195.494 174.397 192.521 171.245 193.555 166.377C194.588 161.509 199.73 156.035 201.67 157.496C202.888 156.284 205.562 156.718 206.819 160.686C208.075 164.655 206.933 174.895 199.501 173.159Z" fill="#E0E0E0"/>
<path opacity="0.25" d="M199.501 173.159C195.494 174.397 192.521 171.245 193.555 166.377C194.588 161.509 199.73 156.035 201.67 157.496C202.888 156.284 205.562 156.718 206.819 160.686C208.075 164.655 206.933 174.895 199.501 173.159Z" fill="white"/>
<path d="M201.846 160.476C200.707 163.329 199.817 166.275 199.185 169.28C198.502 172.323 197.986 175.4 197.641 178.499C196.994 184.497 196.725 190.53 196.837 196.561C196.837 198.226 196.869 199.892 196.901 201.557C196.933 203.222 196.901 205.008 197.054 206.718C197.112 207.356 198.043 207.197 198.056 206.597C198.113 203.598 197.947 200.581 197.915 197.582C197.884 194.583 197.915 191.649 197.973 188.682C198.075 182.639 198.616 176.611 199.593 170.646C199.881 168.981 200.199 167.322 200.582 165.682C200.965 164.042 201.488 162.256 201.941 160.546C201.96 160.476 201.884 160.387 201.846 160.476Z" fill="#E0E0E0"/>
<path opacity="0.1" d="M201.846 160.476C200.707 163.329 199.817 166.275 199.185 169.28C198.502 172.323 197.986 175.4 197.641 178.499C196.994 184.497 196.725 190.53 196.837 196.561C196.837 198.226 196.869 199.892 196.901 201.557C196.933 203.222 196.901 205.008 197.054 206.718C197.112 207.356 198.043 207.197 198.056 206.597C198.113 203.598 197.947 200.581 197.915 197.582C197.884 194.583 197.915 191.649 197.973 188.682C198.075 182.639 198.616 176.611 199.593 170.646C199.881 168.981 200.199 167.322 200.582 165.682C200.965 164.042 201.488 162.256 201.941 160.546C201.96 160.476 201.884 160.387 201.846 160.476Z" fill="black"/>
<path d="M192.986 187.527C191.237 189.505 187.244 189.332 184.545 185.798C181.846 182.263 180.238 168.98 184.022 169.848C184.826 168.074 195.276 172.336 196.616 181C197.592 187.284 192.986 187.527 192.986 187.527Z" fill="#E0E0E0"/>
<path opacity="0.25" d="M192.986 187.527C191.237 189.505 187.244 189.332 184.545 185.798C181.846 182.263 180.238 168.98 184.022 169.848C184.826 168.074 195.276 172.336 196.616 181C197.592 187.284 192.986 187.527 192.986 187.527Z" fill="white"/>
<path d="M196.109 193.799C195.991 192.982 195.818 192.174 195.592 191.381C195.156 189.754 194.637 188.15 194.036 186.577C192.797 183.369 191.232 180.297 189.366 177.409C188.362 175.779 187.256 174.215 186.054 172.726C186.022 172.687 185.991 172.777 186.01 172.809C186.941 174.168 187.885 175.514 188.728 176.936C189.57 178.359 190.38 179.941 191.095 181.492C192.484 184.488 193.638 187.587 194.546 190.762C194.801 191.662 195.012 192.574 195.273 193.473C195.535 194.373 195.911 195.317 196.135 196.261C196.167 196.395 196.345 196.447 196.326 196.261C196.243 195.426 196.218 194.59 196.109 193.799Z" fill="#E0E0E0"/>
<path opacity="0.1" d="M196.109 193.799C195.991 192.982 195.818 192.174 195.592 191.381C195.156 189.754 194.637 188.15 194.036 186.577C192.797 183.369 191.232 180.297 189.366 177.409C188.362 175.779 187.256 174.215 186.054 172.726C186.022 172.687 185.991 172.777 186.01 172.809C186.941 174.168 187.885 175.514 188.728 176.936C189.57 178.359 190.38 179.941 191.095 181.492C192.484 184.488 193.638 187.587 194.546 190.762C194.801 191.662 195.012 192.574 195.273 193.473C195.535 194.373 195.911 195.317 196.135 196.261C196.167 196.395 196.345 196.447 196.326 196.261C196.243 195.426 196.218 194.59 196.109 193.799Z" fill="black"/>
<path d="M199.385 185.562C197.095 185.039 196.98 182.296 199.845 178.921C202.709 175.546 209.906 174.078 210.25 175.501C211.852 175.501 211.852 180.516 208.305 185.122C204.757 189.728 199.596 188.656 199.385 185.562Z" fill="#E0E0E0"/>
<path opacity="0.25" d="M199.385 185.562C197.095 185.039 196.98 182.296 199.845 178.921C202.709 175.546 209.906 174.078 210.25 175.501C211.852 175.501 211.852 180.516 208.305 185.122C204.757 189.728 199.596 188.656 199.385 185.562Z" fill="white"/>
<path d="M203.862 180.662C200.837 182.769 198.528 185.75 197.246 189.205C197.169 189.403 197.507 189.69 197.59 189.473C198.888 186.055 201.054 183.034 203.874 180.707C203.874 180.707 203.894 180.637 203.862 180.662Z" fill="#E0E0E0"/>
<path opacity="0.1" d="M203.862 180.662C200.837 182.769 198.528 185.75 197.246 189.205C197.169 189.403 197.507 189.69 197.59 189.473C198.888 186.055 201.054 183.034 203.874 180.707C203.874 180.707 203.894 180.637 203.862 180.662Z" fill="black"/>
<path d="M201.992 202.297C198.802 203.573 200.187 207.35 203.268 210.221C205.939 212.539 209.379 213.776 212.915 213.691C215.039 213.538 215.588 213.245 215.588 213.245C215.778 211.502 215.778 209.743 215.588 208C215.247 206.084 214.361 204.307 213.036 202.881C211.711 201.455 210.003 200.442 208.117 199.962C203.179 198.622 201.992 200.415 201.992 202.297Z" fill="#E0E0E0"/>
<path opacity="0.45" d="M201.992 202.297C198.802 203.573 200.187 207.35 203.268 210.221C205.939 212.539 209.379 213.776 212.915 213.691C215.039 213.538 215.588 213.245 215.588 213.245C215.778 211.502 215.778 209.743 215.588 208C215.247 206.084 214.361 204.307 213.036 202.881C211.711 201.455 210.003 200.442 208.117 199.962C203.179 198.622 201.992 200.415 201.992 202.297Z" fill="white"/>
<path d="M210.765 207.867C209.348 206.176 207.718 204.675 205.917 203.401C204.111 202.214 201.706 201.2 199.537 201.94C198.701 202.227 197.393 203.062 197.552 204.102C197.552 204.205 197.75 204.46 197.871 204.319C198.207 203.838 198.589 203.391 199.013 202.986C199.512 202.622 200.101 202.401 200.717 202.348C202.273 202.233 203.827 202.584 205.183 203.356C207.327 204.492 209.056 206.259 210.759 207.943C210.759 207.937 210.785 207.886 210.765 207.867Z" fill="#E0E0E0"/>
<path opacity="0.1" d="M210.765 207.867C209.348 206.176 207.718 204.675 205.917 203.401C204.111 202.214 201.706 201.2 199.537 201.94C198.701 202.227 197.393 203.062 197.552 204.102C197.552 204.205 197.75 204.46 197.871 204.319C198.207 203.838 198.589 203.391 199.013 202.986C199.512 202.622 200.101 202.401 200.717 202.348C202.273 202.233 203.827 202.584 205.183 203.356C207.327 204.492 209.056 206.259 210.759 207.943C210.759 207.937 210.785 207.886 210.765 207.867Z" fill="black"/>
<path d="M189.935 186.073C190.235 184.631 188.149 181.179 181.641 180.516C175.134 179.852 170.279 182.608 169.296 183.865C168.314 185.122 167.822 186.449 169.003 186.781C170.183 187.113 174.234 187.502 176.901 188.733C179.568 189.964 184.985 193.582 188.679 192.504C192.373 191.425 191.773 187.508 189.935 186.073Z" fill="#E0E0E0"/>
<path opacity="0.45" d="M189.935 186.073C190.235 184.631 188.149 181.179 181.641 180.516C175.134 179.852 170.279 182.608 169.296 183.865C168.314 185.122 167.822 186.449 169.003 186.781C170.183 187.113 174.234 187.502 176.901 188.733C179.568 189.964 184.985 193.582 188.679 192.504C192.373 191.425 191.773 187.508 189.935 186.073Z" fill="white"/>
<path d="M194.873 191.1C192.13 185.441 185.067 183.744 179.274 183.744C177.375 183.749 175.485 183.993 173.647 184.471C173.647 184.471 173.615 184.541 173.647 184.541C176.757 184.012 179.931 183.98 183.051 184.445C186.139 184.848 189.085 185.983 191.645 187.757C192.887 188.689 193.93 189.861 194.714 191.202C194.822 191.349 194.924 191.221 194.873 191.1Z" fill="#E0E0E0"/>
<path opacity="0.1" d="M194.873 191.1C192.13 185.441 185.067 183.744 179.274 183.744C177.375 183.749 175.485 183.993 173.647 184.471C173.647 184.471 173.615 184.541 173.647 184.541C176.757 184.012 179.931 183.98 183.051 184.445C186.139 184.848 189.085 185.983 191.645 187.757C192.887 188.689 193.93 189.861 194.714 191.202C194.822 191.349 194.924 191.221 194.873 191.1Z" fill="black"/>
<path d="M205.072 178.493C204.989 180.764 208.185 182.085 211.279 180.12C214.374 178.155 217.615 176.241 220.486 175.501C223.357 174.761 224.709 172.419 223.803 171.29C222.897 170.161 221.456 167.302 213.921 168.234C206.386 169.165 203.713 172.566 202.679 174.965C201.646 177.364 203.936 179.15 205.072 178.493Z" fill="#E0E0E0"/>
<path opacity="0.45" d="M205.072 178.493C204.989 180.764 208.185 182.085 211.279 180.12C214.374 178.155 217.615 176.241 220.486 175.501C223.357 174.761 224.709 172.419 223.803 171.29C222.897 170.161 221.456 167.302 213.921 168.234C206.386 169.165 203.713 172.566 202.679 174.965C201.646 177.364 203.936 179.15 205.072 178.493Z" fill="white"/>
<path d="M217.341 171.284C216.251 171.176 215.151 171.291 214.107 171.622C213.155 171.865 212.228 172.196 211.338 172.611C209.563 173.438 207.963 174.597 206.623 176.024C206.242 176.426 205.889 176.852 205.564 177.3C205.232 177.699 204.959 178.144 204.754 178.621C204.703 178.768 204.926 179.01 205.053 178.857C205.43 178.429 205.691 177.9 206.061 177.447C206.436 176.961 206.841 176.498 207.274 176.062C208.145 175.184 209.12 174.415 210.177 173.772C211.185 173.146 212.254 172.622 213.367 172.209C214.005 171.986 214.611 171.801 215.242 171.641C215.908 171.44 216.601 171.345 217.297 171.36C217.354 171.367 217.373 171.284 217.341 171.284Z" fill="#E0E0E0"/>
<path opacity="0.1" d="M217.341 171.284C216.251 171.176 215.151 171.291 214.107 171.622C213.155 171.865 212.228 172.196 211.338 172.611C209.563 173.438 207.963 174.597 206.623 176.024C206.242 176.426 205.889 176.852 205.564 177.3C205.232 177.699 204.959 178.144 204.754 178.621C204.703 178.768 204.926 179.01 205.053 178.857C205.43 178.429 205.691 177.9 206.061 177.447C206.436 176.961 206.841 176.498 207.274 176.062C208.145 175.184 209.12 174.415 210.177 173.772C211.185 173.146 212.254 172.622 213.367 172.209C214.005 171.986 214.611 171.801 215.242 171.641C215.908 171.44 216.601 171.345 217.297 171.36C217.354 171.367 217.373 171.284 217.341 171.284Z" fill="black"/>
<path d="M199.69 190.762C198.631 189.703 195.767 189.951 194.408 193.071C193.049 196.191 195.901 199.611 196.22 200.568C197.528 199.815 198.548 200.261 200.852 199.815C202.136 199.512 203.277 198.775 204.083 197.729C204.888 196.684 205.308 195.392 205.273 194.073C205.088 191.208 203.882 189.32 199.69 190.762Z" fill="#E0E0E0"/>
<path opacity="0.45" d="M199.69 190.762C198.631 189.703 195.767 189.951 194.408 193.071C193.049 196.191 195.901 199.611 196.22 200.568C197.528 199.815 198.548 200.261 200.852 199.815C202.136 199.512 203.277 198.775 204.083 197.729C204.888 196.684 205.308 195.392 205.273 194.073C205.088 191.208 203.882 189.32 199.69 190.762Z" fill="white"/>
<path d="M199.621 190.443C199.045 190.807 198.564 191.304 198.218 191.891C197.846 192.435 197.542 193.022 197.312 193.639C196.819 194.903 196.682 196.278 196.916 197.614C196.916 197.665 196.967 197.614 196.961 197.614C196.848 196.271 197.067 194.922 197.599 193.684C197.853 193.123 198.172 192.594 198.549 192.108C198.745 191.847 198.958 191.6 199.187 191.368C199.411 191.177 199.614 190.963 199.793 190.73C199.902 190.621 199.781 190.36 199.621 190.443Z" fill="#E0E0E0"/>
<path opacity="0.1" d="M199.621 190.443C199.045 190.807 198.564 191.304 198.218 191.891C197.846 192.435 197.542 193.022 197.312 193.639C196.819 194.903 196.682 196.278 196.916 197.614C196.916 197.665 196.967 197.614 196.961 197.614C196.848 196.271 197.067 194.922 197.599 193.684C197.853 193.123 198.172 192.594 198.549 192.108C198.745 191.847 198.958 191.6 199.187 191.368C199.411 191.177 199.614 190.963 199.793 190.73C199.902 190.621 199.781 190.36 199.621 190.443Z" fill="black"/>
<path d="M194.686 197.078C194.59 194.756 192.07 192.918 188.485 191.853C186.725 191.301 184.846 191.259 183.064 191.732C181.282 192.205 179.67 193.174 178.417 194.526C175.801 197.372 174.449 199.79 175.514 200.472C176.579 201.155 181.32 202.89 184.446 203.86C187.572 204.83 191.611 205.136 194.711 203.28C197.812 201.423 197.589 198.239 194.686 197.078Z" fill="#E0E0E0"/>
<path opacity="0.25" d="M194.686 197.078C194.59 194.756 192.07 192.918 188.485 191.853C186.725 191.301 184.846 191.259 183.064 191.732C181.282 192.205 179.67 193.174 178.417 194.526C175.801 197.372 174.449 199.79 175.514 200.472C176.579 201.155 181.32 202.89 184.446 203.86C187.572 204.83 191.611 205.136 194.711 203.28C197.812 201.423 197.589 198.239 194.686 197.078Z" fill="white"/>
<path d="M194.886 196.816C193.674 196.206 192.349 195.852 190.995 195.776C189.697 195.653 188.39 195.67 187.096 195.827C185.728 195.997 184.377 196.283 183.058 196.682C182.369 196.88 181.686 197.11 181.01 197.358C180.366 197.567 179.738 197.825 179.134 198.13C179.134 198.13 179.096 198.22 179.134 198.207C179.772 198.073 180.41 197.818 181.048 197.62C181.686 197.422 182.433 197.205 183.134 197.02C184.439 196.671 185.767 196.419 187.109 196.267C188.453 196.114 189.81 196.114 191.154 196.267C192.398 196.471 193.625 196.772 194.823 197.167C195.103 197.25 195.027 196.899 194.886 196.816Z" fill="#E0E0E0"/>
<path opacity="0.1" d="M194.886 196.816C193.674 196.206 192.349 195.852 190.995 195.776C189.697 195.653 188.39 195.67 187.096 195.827C185.728 195.997 184.377 196.283 183.058 196.682C182.369 196.88 181.686 197.11 181.01 197.358C180.366 197.567 179.738 197.825 179.134 198.13C179.134 198.13 179.096 198.22 179.134 198.207C179.772 198.073 180.41 197.818 181.048 197.62C181.686 197.422 182.433 197.205 183.134 197.02C184.439 196.671 185.767 196.419 187.109 196.267C188.453 196.114 189.81 196.114 191.154 196.267C192.398 196.471 193.625 196.772 194.823 197.167C195.103 197.25 195.027 196.899 194.886 196.816Z" fill="black"/>
<path d="M202.077 193.62C199.525 191.585 200.373 186.704 209.337 186.443C218.301 186.181 224.7 188.523 224.413 191.406C225.855 192.848 225.128 196.887 217.867 198.15C210.607 199.413 200.233 198.782 202.077 193.62Z" fill="#E0E0E0"/>
<path opacity="0.25" d="M202.077 193.62C199.525 191.585 200.373 186.704 209.337 186.443C218.301 186.181 224.7 188.523 224.413 191.406C225.855 192.848 225.128 196.887 217.867 198.15C210.607 199.413 200.233 198.782 202.077 193.62Z" fill="white"/>
<path d="M220.195 191.438C217.55 191.002 214.866 190.846 212.189 190.973C209.698 190.954 207.215 191.239 204.794 191.821C204.175 191.98 203.57 192.193 202.989 192.459C202.719 192.584 202.457 192.725 202.204 192.88C202 193.001 201.776 193.11 201.7 193.346C201.692 193.384 201.694 193.422 201.705 193.459C201.715 193.496 201.734 193.53 201.761 193.558C201.787 193.586 201.819 193.607 201.855 193.62C201.891 193.633 201.93 193.638 201.968 193.633C202.513 193.42 203.038 193.16 203.537 192.855C204.04 192.632 204.558 192.444 205.088 192.293C206.106 191.994 207.147 191.781 208.201 191.655C210.709 191.348 213.235 191.21 215.761 191.241C217.235 191.241 218.703 191.375 220.176 191.489C220.227 191.547 220.24 191.445 220.195 191.438Z" fill="#E0E0E0"/>
<path opacity="0.1" d="M220.195 191.438C217.55 191.002 214.866 190.846 212.189 190.973C209.698 190.954 207.215 191.239 204.794 191.821C204.175 191.98 203.57 192.193 202.989 192.459C202.719 192.584 202.457 192.725 202.204 192.88C202 193.001 201.776 193.11 201.7 193.346C201.692 193.384 201.694 193.422 201.705 193.459C201.715 193.496 201.734 193.53 201.761 193.558C201.787 193.586 201.819 193.607 201.855 193.62C201.891 193.633 201.93 193.638 201.968 193.633C202.513 193.42 203.038 193.16 203.537 192.855C204.04 192.632 204.558 192.444 205.088 192.293C206.106 191.994 207.147 191.781 208.201 191.655C210.709 191.348 213.235 191.21 215.761 191.241C217.235 191.241 218.703 191.375 220.176 191.489C220.227 191.547 220.24 191.445 220.195 191.438Z" fill="black"/>
<path d="M133.393 214.368C133.274 214.369 133.155 214.345 133.045 214.298C132.936 214.251 132.837 214.181 132.755 214.094L100.683 180.159L68.6681 213.973C68.5082 214.142 68.2877 214.241 68.055 214.247C67.8222 214.254 67.5964 214.168 67.4272 214.008C67.258 213.848 67.1593 213.627 67.1527 213.395C67.1461 213.162 67.2322 212.936 67.3921 212.767L100.045 178.315C100.127 178.229 100.226 178.16 100.336 178.113C100.446 178.066 100.564 178.041 100.683 178.041C100.802 178.041 100.92 178.066 101.03 178.113C101.14 178.16 101.239 178.229 101.321 178.315L134.025 212.926C134.106 213.007 134.171 213.103 134.215 213.209C134.258 213.314 134.281 213.428 134.281 213.542C134.281 213.656 134.258 213.77 134.215 213.875C134.171 213.981 134.106 214.077 134.025 214.158C133.85 214.307 133.623 214.383 133.393 214.368Z" fill="#263238"/>
<path d="M100.683 240.086C100.451 240.086 100.229 239.994 100.065 239.83C99.9007 239.666 99.8086 239.444 99.8086 239.212V183.004C99.8086 182.773 99.9007 182.55 100.065 182.386C100.229 182.222 100.451 182.13 100.683 182.13C100.914 182.13 101.137 182.222 101.301 182.386C101.465 182.55 101.557 182.773 101.557 183.004V239.212C101.557 239.444 101.465 239.666 101.301 239.83C101.137 239.994 100.914 240.086 100.683 240.086Z" fill="#37474F"/>
<path d="M135.461 219.625C135.287 219.625 135.117 219.573 134.972 219.475C134.828 219.377 134.716 219.238 134.651 219.077L117.393 175.45C117.348 175.343 117.324 175.227 117.324 175.11C117.324 174.994 117.347 174.878 117.393 174.771C117.438 174.663 117.504 174.566 117.588 174.484C117.672 174.403 117.771 174.339 117.879 174.296C117.988 174.254 118.104 174.233 118.221 174.236C118.337 174.239 118.452 174.265 118.558 174.313C118.665 174.362 118.76 174.43 118.84 174.516C118.919 174.602 118.98 174.702 119.02 174.812L136.246 218.439C136.33 218.655 136.324 218.896 136.231 219.109C136.138 219.322 135.964 219.489 135.748 219.574C135.656 219.606 135.559 219.624 135.461 219.625Z" fill="#37474F"/>
<path d="M65.9053 219.625C65.7965 219.624 65.6886 219.605 65.5863 219.568C65.3715 219.481 65.1995 219.314 65.1075 219.101C65.0156 218.889 65.0111 218.648 65.095 218.432L82.321 174.806C82.3555 174.69 82.4137 174.582 82.4921 174.49C82.5704 174.397 82.667 174.322 82.7759 174.269C82.8848 174.216 83.0036 174.186 83.1246 174.181C83.2457 174.177 83.3664 174.197 83.4791 174.241C83.5919 174.286 83.6941 174.353 83.7794 174.439C83.8648 174.525 83.9313 174.628 83.9748 174.741C84.0182 174.854 84.0377 174.975 84.032 175.096C84.0263 175.217 83.9955 175.335 83.9415 175.444L66.7155 219.07C66.6509 219.233 66.5393 219.373 66.395 219.471C66.2507 219.57 66.0802 219.624 65.9053 219.625Z" fill="#37474F"/>
<path d="M134.271 213.041L136.549 219.051C136.555 219.102 136.555 219.153 136.549 219.204C136.555 219.242 136.555 219.281 136.549 219.319C136.485 219.483 136.362 219.618 136.204 219.695C135.99 219.806 135.753 219.863 135.512 219.863C135.271 219.863 135.034 219.806 134.82 219.695C134.701 219.635 134.607 219.536 134.552 219.415V219.332L132.434 213.692L134.271 213.041Z" fill="#E0E0E0"/>
<path d="M67.0971 213.041L64.8194 219.051C64.8102 219.102 64.8102 219.153 64.8194 219.204V219.319C64.8874 219.48 65.0091 219.613 65.1639 219.695C65.378 219.806 65.6154 219.863 65.8562 219.863C66.097 219.863 66.3343 219.806 66.5484 219.695C66.6671 219.633 66.7631 219.535 66.8227 219.415V219.332L68.9345 213.692L67.0971 213.041Z" fill="#E0E0E0"/>
<path d="M101.688 234.86V239.837C101.68 239.925 101.648 240.009 101.597 240.081C101.545 240.153 101.475 240.209 101.394 240.245C101.174 240.358 100.931 240.417 100.683 240.417C100.436 240.417 100.192 240.358 99.9717 240.245C99.8902 240.21 99.8195 240.153 99.7668 240.081C99.7141 240.01 99.6814 239.925 99.6719 239.837V234.86C99.9818 234.694 100.328 234.607 100.68 234.607C101.032 234.607 101.378 234.694 101.688 234.86Z" fill="#E0E0E0"/>
<path d="M133.424 178.098C133.424 176.886 132.352 175.578 130.094 174.117C125.921 171.405 110.839 162.633 104.995 159.373C104.992 159.361 104.986 159.35 104.976 159.342C104.967 159.334 104.956 159.329 104.944 159.328C100.446 156.597 97.8171 135.652 94.7037 125.782C94.5231 125.165 94.3102 124.558 94.0657 123.964C94.0657 123.919 94.0274 123.874 94.0146 123.83C94.0019 123.785 93.8934 123.568 93.836 123.428C93.7786 123.288 93.7722 123.294 93.7467 123.23C93.2542 122.105 92.5478 121.087 91.6668 120.231C91.3668 119.942 91.0248 119.699 90.6524 119.511L88.8149 118.483C85.7589 116.652 78.5495 120.544 73.554 123.281C70.4469 124.985 67.812 127.007 66.1851 130.778C65.3119 132.944 64.7907 135.235 64.6411 137.566C64.2009 142.772 65.9171 162.014 66.9443 169.549C68.4691 182.143 70.3512 182.162 73.0755 184.268C77.7711 187.898 91.2712 195.005 95.7308 196.76C103.808 199.95 110.405 195.037 115.337 192.606C120.912 189.742 126.338 186.594 131.593 183.177C132.818 182.283 133.462 181.377 133.449 180.42C133.417 180.044 133.424 178.5 133.424 178.098Z" fill="#E0E0E0"/>
<path d="M115.309 190.265C120.885 187.4 126.311 184.253 131.565 180.835C134.366 178.8 134.117 176.72 130.092 174.117C124.515 170.499 101.784 157.599 101.784 157.599C101.784 157.599 69.8325 176.261 71.0702 179.393C72.3079 182.526 90.0954 192.211 95.7034 194.418C103.78 197.595 110.371 192.676 115.309 190.265Z" fill="#F5F5F5"/>
<path d="M90.6275 119.511C87.6033 117.929 80.4641 121.782 75.5962 124.449C72.4827 126.159 69.8542 128.181 68.2145 131.965L66.1602 130.791C67.7743 127.02 70.422 124.998 73.5291 123.294C78.5246 120.557 85.734 116.665 88.79 118.497L90.6275 119.511Z" fill="#F5F5F5"/>
<path d="M94.7038 125.782C94.6336 125.572 93.5937 121.954 91.6414 120.232C90.7378 119.408 89.5589 118.953 88.3366 118.956C85.6953 118.956 79.3153 122.401 75.5766 124.436L74.6579 124.959L74.3133 125.163L73.905 125.425L73.5988 125.623C72.9436 126.053 72.319 126.529 71.7294 127.045C71.6337 127.128 71.538 127.211 71.4487 127.301C71.0728 127.648 70.7171 128.016 70.3833 128.404L70.2046 128.615L69.9941 128.876L69.7899 129.144L69.5921 129.425C69.3241 129.807 69.0771 130.203 68.8521 130.612L68.7627 130.771C68.699 130.881 68.6415 130.994 68.5905 131.109C68.5075 131.275 68.4246 131.441 68.348 131.607C67.3839 133.865 66.8142 136.271 66.6637 138.721C65.9428 147.276 68.7946 177.92 71.7677 180.357C71.7677 180.357 72.4057 177.805 77.229 173.868C81.9009 170.158 86.8756 166.846 92.1008 163.966C101.926 158.429 104.944 159.303 104.944 159.303C100.446 156.598 97.8173 135.652 94.7038 125.782Z" fill="#EBEBEB"/>
<path d="M81.2519 245.03C81.1326 245.03 81.0147 245.005 80.9051 244.958C80.7955 244.911 80.6965 244.842 80.6139 244.756L48.5416 210.814L16.5331 244.628C16.4544 244.712 16.3599 244.78 16.2551 244.827C16.1503 244.874 16.0372 244.9 15.9222 244.904C15.8073 244.907 15.6928 244.888 15.5852 244.848C15.4777 244.807 15.3792 244.745 15.2954 244.667C15.2116 244.588 15.1442 244.493 15.0969 244.389C15.0497 244.284 15.0235 244.171 15.0199 244.056C15.0164 243.941 15.0355 243.826 15.0762 243.719C15.1169 243.611 15.1784 243.513 15.2571 243.429L47.9036 208.977C47.9851 208.889 48.0839 208.82 48.1937 208.773C48.3036 208.725 48.422 208.702 48.5416 208.703C48.6612 208.702 48.7796 208.725 48.8895 208.773C48.9993 208.82 49.0981 208.889 49.1796 208.977L81.8899 243.589C82.0042 243.714 82.0799 243.87 82.1079 244.037C82.1358 244.204 82.1148 244.376 82.0474 244.532C81.98 244.687 81.8691 244.82 81.728 244.914C81.5868 245.009 81.4215 245.06 81.2519 245.062V245.03Z" fill="#263238"/>
<path d="M48.5459 270.729C48.3174 270.729 48.0979 270.64 47.9346 270.48C47.7712 270.32 47.6769 270.103 47.6719 269.874V213.667C47.6719 213.552 47.6945 213.438 47.7384 213.332C47.7823 213.226 47.8467 213.13 47.9279 213.048C48.009 212.967 48.1054 212.903 48.2114 212.859C48.3175 212.815 48.4311 212.792 48.5459 212.792C48.6607 212.792 48.7744 212.815 48.8804 212.859C48.9865 212.903 49.0828 212.967 49.164 213.048C49.2452 213.13 49.3095 213.226 49.3535 213.332C49.3974 213.438 49.42 213.552 49.42 213.667V269.874C49.415 270.103 49.3207 270.32 49.1573 270.48C48.9939 270.64 48.7745 270.729 48.5459 270.729Z" fill="#37474F"/>
<path d="M83.3258 250.269C83.1496 250.269 82.9774 250.217 82.8316 250.118C82.6859 250.019 82.5735 249.878 82.5092 249.714L65.2832 206.087C65.2413 205.981 65.2208 205.867 65.2228 205.753C65.2248 205.639 65.2493 205.526 65.2949 205.421C65.3406 205.316 65.4064 205.221 65.4887 205.142C65.5709 205.062 65.668 205 65.7744 204.958C65.8809 204.916 65.9945 204.896 66.1088 204.898C66.2231 204.9 66.336 204.924 66.4408 204.97C66.5457 205.015 66.6405 205.081 66.72 205.163C66.7994 205.246 66.8618 205.343 66.9037 205.449L84.1297 249.076C84.172 249.182 84.1929 249.296 84.1911 249.41C84.1893 249.525 84.1648 249.638 84.1191 249.743C84.0735 249.848 84.0075 249.942 83.925 250.022C83.8425 250.101 83.7451 250.163 83.6384 250.205C83.5393 250.246 83.4332 250.268 83.3258 250.269Z" fill="#37474F"/>
<path d="M13.7699 250.269C13.6603 250.27 13.5517 250.248 13.4509 250.205C13.2354 250.121 13.062 249.955 12.9688 249.743C12.8755 249.532 12.8699 249.292 12.9533 249.076L30.1793 205.449C30.268 205.239 30.4351 205.073 30.6451 204.984C30.8551 204.896 31.0914 204.893 31.3035 204.976C31.5156 205.059 31.6869 205.222 31.7808 205.429C31.8747 205.637 31.8838 205.873 31.8062 206.087L14.5802 249.714C14.5162 249.877 14.4048 250.017 14.2604 250.116C14.1159 250.215 13.945 250.268 13.7699 250.269Z" fill="#37474F"/>
<path d="M82.1279 243.716L84.4056 249.726C84.4148 249.776 84.4148 249.828 84.4056 249.879V249.987C84.3403 250.152 84.218 250.288 84.0611 250.37C83.8459 250.48 83.6075 250.538 83.3657 250.538C83.1238 250.538 82.8855 250.48 82.6702 250.37C82.553 250.305 82.4592 250.205 82.4023 250.083V250L80.2969 244.354L82.1279 243.716Z" fill="#E0E0E0"/>
<path d="M14.9582 243.716L12.6805 249.726C12.6744 249.777 12.6744 249.828 12.6805 249.879C12.6742 249.915 12.6742 249.951 12.6805 249.987C12.7416 250.155 12.865 250.292 13.025 250.37C13.2391 250.48 13.4765 250.538 13.7173 250.538C13.9581 250.538 14.1954 250.48 14.4095 250.37C14.5288 250.308 14.6233 250.206 14.6775 250.083V250L16.7956 244.354L14.9582 243.716Z" fill="#E0E0E0"/>
<path d="M49.5512 265.504V270.474C49.5428 270.564 49.5106 270.649 49.4579 270.722C49.4051 270.795 49.3338 270.853 49.2514 270.889C49.0304 270.999 48.7869 271.056 48.54 271.056C48.2931 271.056 48.0496 270.999 47.8286 270.889C47.747 270.852 47.6766 270.795 47.625 270.722C47.5733 270.649 47.5423 270.563 47.5352 270.474V265.504C47.8451 265.338 48.1914 265.25 48.5432 265.25C48.895 265.25 49.2413 265.338 49.5512 265.504Z" fill="#E0E0E0"/>
<path d="M81.2899 208.741C81.2899 207.529 80.218 206.221 77.9531 204.76C73.7806 202.048 58.6983 193.276 52.8542 190.015C52.8518 190.003 52.8457 189.991 52.8366 189.982C52.8275 189.973 52.8158 189.967 52.8032 189.964C48.3372 187.24 45.6767 166.295 42.5633 156.425C42.3811 155.808 42.1682 155.202 41.9253 154.606L41.8679 154.472L41.6892 154.071C41.6892 154.007 41.6318 153.937 41.5999 153.873C41.1076 152.746 40.4013 151.725 39.52 150.868C39.2129 150.585 38.8696 150.345 38.4992 150.153C37.9952 149.866 36.9297 149.279 36.6682 149.12C33.6121 147.295 26.3963 151.187 21.4072 153.924C18.3001 155.627 15.6652 157.65 14.0383 161.42C13.1622 163.585 12.6408 165.878 12.4943 168.209C12.0477 173.415 13.7703 192.657 14.7975 200.192C16.3287 212.786 18.2044 212.811 20.9351 214.917C25.6308 218.547 39.1244 225.654 43.5841 227.409C51.6675 230.599 58.2581 225.686 63.1962 223.249C68.7701 220.387 74.1939 217.242 79.4461 213.826C80.6774 212.932 81.3154 212.026 81.3026 211.069C81.2771 210.687 81.2899 209.143 81.2899 208.741Z" fill="#E0E0E0"/>
<path d="M63.1636 220.902C68.7362 218.038 74.1598 214.893 79.4134 211.479C82.2143 209.443 81.9654 207.364 77.9397 204.761C72.3635 201.143 49.6316 188.243 49.6316 188.243C49.6316 188.243 17.6997 206.904 18.9374 210.03C20.1751 213.157 37.9626 222.854 43.5642 225.062C51.6796 228.239 58.251 223.339 63.1636 220.902Z" fill="#F5F5F5"/>
<path d="M38.4872 150.154C35.4631 148.565 28.3239 152.425 23.4623 155.092C20.3425 156.795 17.6884 158.824 16.0807 162.608L14.0391 161.414C15.6532 157.644 18.3009 155.621 21.408 153.918C26.3971 151.181 33.6129 147.289 36.6689 149.114C36.9177 149.292 37.9832 149.867 38.4872 150.154Z" fill="#F5F5F5"/>
<path d="M42.5618 156.425C42.498 156.215 41.458 152.597 39.5057 150.868C38.5963 150.051 37.4176 149.596 36.1945 149.592C33.5532 149.592 27.1732 153.037 23.4345 155.073C23.1219 155.245 22.7965 155.417 22.5158 155.596C22.3946 155.66 22.2797 155.73 22.1649 155.8L21.7566 156.062C21.6528 156.122 21.5527 156.188 21.4567 156.259C20.8007 156.689 20.174 157.162 19.581 157.676C19.4853 157.759 19.396 157.842 19.3003 157.937C18.9249 158.283 18.5712 158.652 18.2412 159.041L18.0626 159.252C17.9924 159.335 17.9158 159.424 17.852 159.513C17.7882 159.603 17.718 159.692 17.6479 159.781C17.5777 159.87 17.5139 159.96 17.4501 160.055C17.1799 160.439 16.9308 160.838 16.7036 161.249C16.6701 161.3 16.6402 161.353 16.6143 161.408L16.442 161.74C16.3591 161.906 16.2825 162.078 16.1996 162.244C15.2339 164.501 14.6641 166.907 14.5153 169.358C13.7943 177.913 16.6462 208.556 19.6193 210.993C19.6193 210.993 20.2573 208.441 25.0869 204.505C29.7608 200.795 34.74 197.487 39.9715 194.616C49.7903 189.078 52.808 189.946 52.808 189.946C48.3101 187.241 45.6752 166.295 42.5618 156.425Z" fill="#EBEBEB"/>
<path d="M158.349 298.118C187.344 298.118 210.85 284.547 210.85 267.807C210.85 251.066 187.344 237.495 158.349 237.495C129.353 237.495 105.848 251.066 105.848 267.807C105.848 284.547 129.353 298.118 158.349 298.118Z" fill="#E0E0E0"/>
<path d="M75.7879 288.497L60.1122 279.444C57.3688 277.861 57.3688 275.297 60.1122 273.702L108.377 245.834C109.915 245.054 111.616 244.647 113.341 244.647C115.065 244.647 116.766 245.054 118.304 245.834L133.98 254.9C136.723 256.482 136.723 259.047 133.98 260.642L85.7152 288.51C84.1759 289.288 82.4748 289.692 80.75 289.69C79.0252 289.688 77.3252 289.279 75.7879 288.497Z" fill="#E0E0E0"/>
<path d="M124.239 195.189L112.238 188.261H112.193L112.104 188.21C106.183 184.854 98.0678 185.37 89.0528 190.564C70.9592 200.97 56.2852 226.4 56.2852 247.288C56.2852 257.675 59.9154 264.98 65.7786 268.432L65.8679 268.483H65.9126L77.9134 275.411L79.9996 269.931C83.1816 269.112 86.2317 267.847 89.0592 266.173C107.153 255.729 121.821 230.324 121.821 209.429C121.847 206.168 121.417 202.919 120.545 199.776L124.239 195.189Z" fill="#5B26CF"/>
<path opacity="0.4" d="M124.239 195.189L112.238 188.261H112.193L112.104 188.21C106.183 184.854 98.0678 185.37 89.0528 190.564C70.9592 200.97 56.2852 226.4 56.2852 247.288C56.2852 257.675 59.9154 264.98 65.7786 268.432L65.8679 268.483H65.9126L77.9134 275.411L79.9996 269.931C83.1816 269.112 86.2317 267.847 89.0592 266.173C107.153 255.729 121.821 230.324 121.821 209.429C121.847 206.168 121.417 202.919 120.545 199.776L124.239 195.189Z" fill="white"/>
<path opacity="0.4" d="M56.5723 242.185C56.389 243.88 56.2932 245.584 56.2852 247.289C56.2852 257.676 59.9154 264.981 65.7786 268.432L65.8679 268.483H65.9126L77.9134 275.412L79.9996 269.932C80.6759 269.759 81.3649 269.562 82.0667 269.332L85.161 258.652L56.5723 242.185Z" fill="#5B26CF"/>
<path d="M124.356 248.758C137.15 226.598 137.149 202.646 124.354 195.258C111.559 187.871 90.8154 199.847 78.0212 222.007C65.2271 244.167 65.2278 268.12 78.0228 275.507C90.8178 282.894 111.562 270.918 124.356 248.758Z" fill="#5B26CF"/>
<path d="M86.5511 272.534C78.423 272.534 73.5742 265.714 73.5742 254.3C73.5742 235.403 87.3997 211.459 103.758 202.016C108.052 199.541 112.218 198.233 115.816 198.233C123.944 198.233 128.793 205.047 128.793 216.467C128.793 235.358 114.968 259.302 98.6093 268.751C94.322 271.226 90.1495 272.534 86.5511 272.534Z" fill="#5B26CF"/>
<path opacity="0.15" d="M86.5511 272.534C78.423 272.534 73.5742 265.714 73.5742 254.3C73.5742 235.403 87.3997 211.459 103.758 202.016C108.052 199.541 112.218 198.233 115.816 198.233C123.944 198.233 128.793 205.047 128.793 216.467C128.793 235.358 114.968 259.302 98.6093 268.751C94.322 271.226 90.1495 272.534 86.5511 272.534Z" fill="black"/>
<path d="M125.775 214.674C125.775 207.401 123.804 202.01 120.276 199.043C118.852 198.493 117.336 198.219 115.81 198.233C112.212 198.233 108.045 199.541 103.752 202.016C87.4061 211.459 73.5742 235.422 73.5742 254.3C73.5742 261.567 75.5456 266.965 79.0738 269.931C80.4991 270.477 82.0137 270.752 83.5398 270.742C87.1381 270.742 91.3042 269.434 95.5916 266.958C111.956 257.51 125.775 233.565 125.775 214.674Z" fill="#FAFAFA"/>
<path d="M109.628 239.473C109.454 239.473 109.281 239.44 109.118 239.377L96.0391 234.343L109.099 209.85C109.181 209.674 109.298 209.517 109.442 209.387C109.587 209.258 109.756 209.159 109.941 209.098C110.125 209.036 110.319 209.012 110.513 209.028C110.706 209.044 110.894 209.1 111.066 209.191C111.237 209.282 111.388 209.407 111.51 209.558C111.631 209.71 111.721 209.884 111.772 210.072C111.824 210.259 111.837 210.454 111.811 210.647C111.785 210.839 111.719 211.024 111.619 211.19L100.135 232.838L110.145 236.697C110.457 236.818 110.716 237.043 110.879 237.335C111.042 237.626 111.097 237.965 111.036 238.294C110.974 238.622 110.8 238.918 110.543 239.131C110.286 239.344 109.962 239.461 109.628 239.46V239.473Z" fill="#37474F"/>
<path d="M98.1702 238.982C99.5298 238.095 100.661 236.901 101.473 235.495C102.284 234.09 102.753 232.512 102.84 230.892C102.84 227.912 100.748 226.707 98.1702 228.193C96.8101 229.08 95.6784 230.276 94.8669 231.683C94.0555 233.089 93.5872 234.668 93.5 236.289C93.5 239.25 95.5926 240.475 98.1702 238.982Z" fill="#455A64"/>
<path d="M98.1681 262.217C97.7853 262.441 97.4727 262.217 97.4727 261.764V256.265C97.4792 256.012 97.5457 255.765 97.6666 255.543C97.7875 255.321 97.9594 255.131 98.1681 254.989C98.5509 254.772 98.8635 254.989 98.8635 255.448V260.941C98.8574 261.194 98.7912 261.442 98.6702 261.664C98.5493 261.886 98.3771 262.075 98.1681 262.217Z" fill="#5B26CF"/>
<path d="M98.1148 214.126C97.732 214.349 97.4258 214.126 97.4258 213.673V208.167C97.4311 207.915 97.4964 207.667 97.6162 207.446C97.736 207.224 97.9069 207.034 98.1148 206.891C98.4976 206.674 98.8102 206.891 98.8102 207.35V212.85C98.8037 213.102 98.7372 213.35 98.6163 213.571C98.4954 213.793 98.3235 213.983 98.1148 214.126Z" fill="#5B26CF"/>
<path d="M74.8477 248.265C74.8664 248.016 74.9437 247.775 75.0735 247.562C75.2033 247.35 75.3817 247.17 75.5942 247.04L80.3856 244.29C80.8003 244.054 81.1257 244.22 81.1257 244.66C81.1055 244.908 81.0275 245.149 80.8979 245.361C80.7683 245.574 80.5906 245.753 80.3792 245.885L75.6197 248.635C75.1731 248.877 74.8414 248.711 74.8477 248.265Z" fill="#5B26CF"/>
<path d="M116.27 224.295C116.29 224.047 116.368 223.807 116.497 223.594C116.627 223.381 116.805 223.202 117.016 223.07L121.782 220.314C122.19 220.078 122.522 220.244 122.516 220.69C122.497 220.939 122.42 221.18 122.29 221.393C122.16 221.606 121.982 221.785 121.769 221.915L117.01 224.665C116.601 224.901 116.27 224.735 116.27 224.295Z" fill="#5B26CF"/>
<path d="M131.383 256.405C132.021 247.754 130.975 238.248 131.689 224.748C131.753 221.29 131.881 217.583 132.11 214.285C132.895 203.209 134.605 199.419 134.758 197.282C134.758 197.282 135.6 176.043 136.321 151.799C136.666 140.391 139.97 136.94 142.612 130.885H174.001C177.51 145.821 178.506 178.403 178.404 193.798C178.346 201.646 175.182 243.639 175.118 244.602C174.895 248.028 175.194 249.381 176.534 250.823C179.348 253.841 183.425 256.718 186.946 259.347C186.436 260.693 182.2 260.623 180.101 259.621C177.349 258.189 174.728 256.519 172.266 254.632C169.37 252.488 165.669 250.765 165.618 247.505C165.605 247.309 165.573 247.115 165.522 246.925C165.471 245.011 161.056 216.939 160.661 210.412C160.342 204.804 161.024 195.298 161.024 195.298L157.407 171.558C157.407 171.558 154.632 189.581 152.38 199.164C150.542 206.96 147.512 220.269 145.451 229.865C143.467 240.927 140.615 251.671 140.111 257.209C139.964 258.53 138.465 271.5 137.846 274.474C137.227 277.447 130.796 277.53 130.349 272.426C130.075 269.012 131.268 258.032 131.383 256.405Z" fill="#9E6767"/>
<path d="M192.943 262.792C193.122 262.792 193.416 264.763 192.452 265.612C191.336 266.594 188.056 268.221 183.692 267.704C179.329 267.188 176.955 265.867 175.194 264.425C173.433 262.983 170.971 260.948 168.993 260.54C167.156 260.15 165.165 259.347 164.565 258.785C163.966 258.224 164.029 255.71 164.029 255.71L192.943 262.792Z" fill="#263238"/>
<path d="M165.446 246C165.446 246 165.114 246 165.012 246.6C164.885 247.295 164.763 249.311 164.483 250.428C164.056 252.438 163.934 254.5 164.119 256.546C164.374 257.822 167.373 258.696 169.287 259.404C171.541 260.36 173.639 261.65 175.507 263.232C177.575 264.904 181.887 266.55 184.739 266.563C189.078 266.563 191.872 265.37 192.727 263.807C193.78 261.893 192.925 260.757 187.917 258.498C186.966 258.071 183.636 256.151 182.5 255.449C181.294 254.715 180.15 253.882 179.08 252.961C178.54 252.495 178.027 251.998 177.543 251.474C177.039 251.007 176.609 250.467 176.267 249.873C176.209 249.745 176.171 249.592 176.12 249.452C175.972 249.075 175.859 248.687 175.782 248.29C175.699 247.876 175.641 247.276 175.239 247.014C174.675 246.788 174.059 246.722 173.459 246.823C172.815 246.876 172.176 246.974 171.545 247.116C170.812 247.289 169.97 247.365 169.542 248.054C169.255 248.614 169.119 249.238 169.147 249.866C169.147 250.16 169.147 250.453 169.147 250.74C169.147 250.868 169.204 251.091 169.032 251.04C168.859 250.989 168.674 250.562 168.611 250.402C168.47 250.083 168.375 249.732 168.221 249.413C168.049 249.042 167.835 248.691 167.583 248.367C167.35 248.07 167.083 247.802 166.786 247.569C166.487 247.408 166.2 247.226 165.925 247.027C165.671 246.737 165.505 246.381 165.446 246Z" fill="#37474F"/>
<path d="M188.723 258.907C182.445 259.404 180.512 263.303 180.27 265.701C181.703 266.227 183.21 266.528 184.736 266.595C189.074 266.595 192.047 265.402 192.902 263.838C193.891 262.007 193.189 260.546 188.723 258.907Z" fill="#FAFAFA"/>
<path d="M179.316 259.066C179.245 259.07 179.174 259.047 179.119 259.002C179.087 258.977 179.061 258.945 179.041 258.91C179.022 258.874 179.01 258.835 179.006 258.795C179.001 258.754 179.005 258.713 179.017 258.675C179.029 258.636 179.048 258.6 179.074 258.568C179.797 257.805 180.675 257.205 181.648 256.809C182.622 256.413 183.67 256.229 184.72 256.272C184.762 256.275 184.803 256.287 184.84 256.307C184.877 256.326 184.91 256.353 184.937 256.385C184.964 256.418 184.985 256.455 184.997 256.495C185.01 256.535 185.014 256.577 185.011 256.619C185.007 256.661 184.995 256.702 184.975 256.739C184.956 256.776 184.929 256.809 184.897 256.836C184.864 256.863 184.827 256.884 184.787 256.896C184.747 256.909 184.705 256.913 184.663 256.91C183.715 256.881 182.772 257.05 181.893 257.406C181.014 257.762 180.219 258.297 179.559 258.977C179.528 259.009 179.49 259.033 179.448 259.049C179.406 259.064 179.361 259.07 179.316 259.066Z" fill="#F0F0F0"/>
<path d="M176.593 257.522C176.523 257.524 176.456 257.501 176.401 257.459C176.338 257.407 176.297 257.333 176.287 257.252C176.278 257.171 176.3 257.089 176.35 257.025C177.073 256.26 177.952 255.659 178.927 255.263C179.902 254.867 180.951 254.685 182.003 254.728C182.046 254.727 182.089 254.736 182.128 254.753C182.168 254.77 182.203 254.795 182.232 254.826C182.262 254.858 182.284 254.895 182.298 254.936C182.311 254.977 182.316 255.02 182.312 255.063C182.308 255.106 182.295 255.147 182.274 255.185C182.253 255.222 182.224 255.255 182.189 255.28C182.155 255.306 182.115 255.324 182.073 255.333C182.031 255.342 181.988 255.343 181.945 255.334C180.997 255.307 180.054 255.478 179.176 255.835C178.297 256.192 177.502 256.727 176.841 257.408C176.812 257.445 176.775 257.476 176.731 257.496C176.688 257.516 176.64 257.525 176.593 257.522Z" fill="#F0F0F0"/>
<path d="M174.072 255.748C174 255.75 173.931 255.727 173.874 255.685C173.81 255.633 173.769 255.559 173.76 255.478C173.75 255.397 173.773 255.315 173.823 255.251C174.547 254.488 175.426 253.888 176.401 253.492C177.376 253.096 178.424 252.913 179.475 252.954C179.516 252.957 179.555 252.968 179.591 252.987C179.627 253.005 179.659 253.031 179.685 253.061C179.711 253.092 179.731 253.128 179.743 253.166C179.755 253.205 179.76 253.245 179.756 253.286C179.753 253.326 179.742 253.366 179.723 253.402C179.704 253.438 179.678 253.47 179.646 253.496C179.614 253.521 179.578 253.54 179.539 253.551C179.499 253.562 179.458 253.565 179.418 253.56C178.47 253.534 177.527 253.705 176.649 254.062C175.77 254.419 174.975 254.954 174.314 255.634C174.286 255.671 174.249 255.701 174.207 255.721C174.165 255.741 174.118 255.75 174.072 255.748Z" fill="#F0F0F0"/>
<path d="M171.627 253.975C171.558 253.976 171.49 253.954 171.436 253.911C171.372 253.862 171.33 253.789 171.319 253.709C171.308 253.629 171.33 253.548 171.378 253.484C172.565 251.953 175.27 250.932 177.554 251.149C177.596 251.152 177.637 251.164 177.674 251.184C177.711 251.203 177.744 251.23 177.771 251.262C177.798 251.295 177.819 251.332 177.831 251.372C177.844 251.412 177.848 251.454 177.845 251.496C177.841 251.538 177.829 251.579 177.809 251.616C177.79 251.654 177.763 251.687 177.731 251.714C177.699 251.74 177.661 251.761 177.621 251.773C177.581 251.786 177.539 251.79 177.497 251.787C175.442 251.589 172.916 252.533 171.863 253.892C171.833 253.922 171.795 253.946 171.755 253.96C171.714 253.974 171.67 253.979 171.627 253.975Z" fill="#F0F0F0"/>
<path d="M139.893 276.79C139.721 279.75 139.255 281.715 138.209 283.451C137.163 285.186 135.178 285.728 133.169 285.224C131.159 284.72 128.594 283.355 128.014 280.803C127.433 278.251 127.108 276.496 127.561 273.747L139.893 276.79Z" fill="#263238"/>
<path d="M131.433 255.347C130.61 255.41 130.361 259.385 129.889 263.366C129.378 267.635 128.102 269.402 127.643 272.898C127.12 276.898 127.783 278.678 129.187 281.096C130.59 283.514 135.567 285.888 137.985 282.423C139.975 279.603 140.058 276.471 139.899 272.483C139.792 269.108 139.882 265.73 140.167 262.365C140.326 259.372 140.99 256.355 140.269 256.023C140.212 256.463 140.16 257.018 140.103 257.452C140.075 257.992 139.985 258.527 139.835 259.047C139.752 259.27 139.567 259.506 139.491 259.143C139.452 258.895 139.452 258.644 139.491 258.396C139.612 257.293 139.057 257.203 138.757 257.12C137.492 256.87 136.214 256.689 134.929 256.578C134.291 256.533 132.115 256.438 131.828 256.801C131.643 257.158 131.549 257.555 131.554 257.956C131.484 258.556 131.343 258.996 131.324 258.805C131.286 258.377 131.369 257.254 131.382 256.986C131.394 256.718 131.433 256.348 131.439 256.112C131.445 255.876 131.433 255.602 131.433 255.347Z" fill="#37474F"/>
<path d="M127.434 275.214C127.285 277.352 127.829 279.482 128.985 281.288C130.382 283.706 135.741 286.085 138.185 282.621C139.403 280.898 139.729 278.863 139.895 276.783C138.453 274.117 129.744 272.943 127.434 275.214Z" fill="#FAFAFA"/>
<path d="M138.089 272.426C138.055 272.432 138.02 272.432 137.987 272.426C137.955 272.426 134.127 270.824 130.401 271.686C130.36 271.699 130.318 271.704 130.275 271.701C130.233 271.697 130.191 271.684 130.154 271.664C130.117 271.643 130.084 271.615 130.058 271.581C130.033 271.547 130.014 271.508 130.004 271.466C129.994 271.425 129.993 271.382 130.001 271.34C130.009 271.298 130.026 271.258 130.05 271.223C130.074 271.187 130.105 271.158 130.141 271.135C130.178 271.113 130.218 271.098 130.26 271.092C134.203 270.18 138.108 271.8 138.255 271.871C138.327 271.906 138.383 271.969 138.409 272.046C138.435 272.122 138.43 272.206 138.395 272.279C138.365 272.332 138.319 272.374 138.265 272.4C138.21 272.426 138.149 272.435 138.089 272.426Z" fill="#F0F0F0"/>
<path d="M130.585 268.699C130.526 268.694 130.469 268.671 130.423 268.633C130.376 268.596 130.342 268.546 130.323 268.489C130.299 268.412 130.305 268.328 130.341 268.256C130.376 268.183 130.439 268.127 130.515 268.1C134.228 266.824 138.343 268.738 138.496 268.808C138.558 268.852 138.601 268.916 138.619 268.99C138.636 269.063 138.626 269.14 138.591 269.207C138.556 269.274 138.498 269.326 138.428 269.353C138.358 269.381 138.28 269.382 138.209 269.357C138.177 269.357 134.164 267.506 130.713 268.68C130.672 268.696 130.628 268.703 130.585 268.699Z" fill="#F0F0F0"/>
<path d="M130.718 265.886C130.661 265.88 130.606 265.859 130.56 265.824C130.513 265.789 130.478 265.742 130.457 265.688C130.443 265.65 130.436 265.609 130.438 265.569C130.439 265.528 130.449 265.488 130.466 265.451C130.484 265.415 130.508 265.382 130.538 265.354C130.568 265.327 130.603 265.306 130.642 265.292C134.719 263.831 138.63 265.892 138.77 265.981C138.839 266.024 138.889 266.092 138.908 266.171C138.927 266.25 138.914 266.333 138.872 266.403C138.83 266.472 138.762 266.522 138.683 266.541C138.604 266.56 138.52 266.547 138.451 266.505C138.419 266.505 134.623 264.514 130.852 265.867C130.809 265.882 130.764 265.889 130.718 265.886Z" fill="#F0F0F0"/>
<path d="M130.92 263.123C130.864 263.115 130.811 263.093 130.766 263.058C130.721 263.024 130.686 262.978 130.665 262.926C130.65 262.888 130.643 262.848 130.645 262.807C130.646 262.767 130.655 262.727 130.672 262.691C130.688 262.654 130.712 262.621 130.741 262.593C130.771 262.566 130.805 262.544 130.843 262.53C134.671 261.101 138.869 263.213 139.029 263.302C139.099 263.343 139.15 263.411 139.172 263.489C139.193 263.568 139.183 263.652 139.144 263.723C139.123 263.758 139.096 263.788 139.064 263.813C139.032 263.837 138.995 263.855 138.956 263.865C138.916 263.875 138.876 263.877 138.836 263.872C138.796 263.866 138.757 263.852 138.722 263.832C138.684 263.832 134.607 261.771 131.066 263.104C131.019 263.121 130.969 263.127 130.92 263.123Z" fill="#EBEBEB"/>
<path d="M139.41 130.885C135.958 139.384 134.771 144.213 134.395 164.38C134.019 184.548 134.057 193.282 133.974 195.713C133.891 198.143 132.481 202.488 131.237 214.47C129.993 226.451 131.135 240.468 131.135 240.468C131.135 240.468 132.322 242.644 136.877 243.02C141.1 243.403 143.193 241.814 143.193 241.814C143.193 241.814 148.986 218.489 150.594 211.28C152.202 204.07 157.395 176.349 157.395 176.349L160.157 195.585C160.157 195.585 158.881 202.195 160.157 212.703C161.433 223.21 163.718 233.961 163.718 233.961C165.802 234.689 167.998 235.049 170.206 235.026C172.206 235.057 174.176 234.541 175.903 233.533C175.903 233.533 179.489 202.271 179.489 190.379C179.489 178.487 179.342 148.475 175.591 130.854L139.41 130.885Z" fill="#455A64"/>
<path d="M151.746 199.132C151.746 199.132 149.928 196.504 145.462 195.942C140.996 195.381 138.68 197.824 138.68 197.824C138.68 197.824 146.967 196.976 151.746 199.132ZM138.176 199.611C143.918 200.753 146.559 200.517 149.188 199.994C149.188 199.994 140.906 198.947 138.176 199.611Z" fill="#9E6767"/>
<path d="M179.455 193.518L179.493 192.242C175.665 191.731 169.521 192.975 167.875 193.92C171.711 193.389 175.591 193.254 179.455 193.518ZM170.606 195.4C173.158 196.089 179.321 196.401 179.321 196.401L179.385 195.189C179.385 195.189 174.995 195.055 170.606 195.4Z" fill="#9E6767"/>
<path d="M132.255 241.579C132.456 241.73 132.669 241.865 132.893 241.98C131.725 223.159 134.066 212.352 135.623 205.149C135.776 204.453 135.917 203.796 136.051 203.171C137.231 197.537 137.761 186.232 137.741 176.975C137.741 174.187 137.741 171.309 137.741 168.247C137.741 164.668 137.875 160.961 138.169 157.299C144.734 156.514 146.157 150.032 147.949 141.853C148.192 140.73 148.449 139.575 148.721 138.388L148.141 138.254C147.866 139.441 147.611 140.602 147.362 141.725C145.57 149.923 144.249 155.876 138.22 156.673C138.934 148.379 140.651 140.283 144.734 134.452L144.249 134.107C138.169 142.784 137.231 156.233 137.142 168.24C137.142 171.303 137.142 174.187 137.142 176.975C137.142 186.2 136.631 197.48 135.464 203.05L135.043 205.021C133.473 212.199 131.144 222.943 132.255 241.579ZM161.188 153.483L157.417 176.381L160.18 195.617L159.816 176.93L162.368 162.734C162.464 164.144 162.566 165.593 162.662 167.066C163.497 179.24 164.435 193.033 163.804 195.936C162.056 203.892 162.566 208.913 163.497 218.03C163.593 218.955 163.695 219.944 163.797 220.939C164.308 226.088 164.875 231.147 165.258 234.458L165.896 234.599C165.513 231.294 164.933 226.139 164.41 220.882C164.308 219.861 164.212 218.898 164.116 217.973C163.191 208.919 162.681 203.937 164.403 196.064C165.041 193.078 164.155 179.833 163.28 167.028C163.121 164.7 162.968 162.454 162.828 160.31L163.555 156.278C166.426 155.589 172.748 152.252 173.591 148.29C169.15 152.916 161.188 153.483 161.188 153.483Z" fill="#37474F"/>
<path d="M193.781 120.875C193.302 120.613 192.403 121.404 191.229 122.521C190.935 122.797 190.707 123.134 190.561 123.51C190.416 123.885 190.356 124.289 190.387 124.69C191.202 124.539 191.94 124.113 192.479 123.484C193.107 122.725 193.552 121.833 193.781 120.875Z" fill="#263238"/>
<path d="M196.512 130.018C196.052 129.871 195.874 129.673 196.512 129.08C197.15 128.487 199.255 126.962 199.255 126.962L199.785 127.855C199.785 127.855 197.309 130.197 196.512 130.018Z" fill="black"/>
<path d="M210.052 115.548C209.752 114.234 208.31 113.264 205.707 111.816L205.637 111.778L205.273 111.574C200.954 109.366 179.702 99.7514 176.264 98.4308C173.631 97.3195 170.849 96.5994 168.008 96.2935L172.774 113.066C172.774 113.066 188.564 118.011 195.104 120.021C193.311 122.145 191.556 124.2 189.942 124.94L196.322 130.344C197.739 128.155 206.352 123.766 208.259 120.774C209.618 118.579 210.339 116.831 210.052 115.548Z" fill="#9E6767"/>
<path d="M203.696 113.271C199.345 112.805 195.74 116.537 194.043 118.483C193.871 118.681 193.514 119.121 193.227 119.453L195.064 120.021C195.16 119.912 195.887 118.949 196.34 118.343C198.094 115.814 200.709 114.011 203.696 113.271Z" fill="#874C4C"/>
<path d="M195.777 125.571C195.056 124.933 193.295 123.319 192.173 123.791C190.412 124.538 189.582 125.24 186.935 126.477C185.021 127.377 182.692 128.576 182.188 129.17C180.912 130.688 181.346 134.567 181.856 136.188C181.915 136.395 182.019 136.586 182.159 136.75C182.3 136.913 182.474 137.043 182.67 137.133C182.866 137.222 183.079 137.267 183.294 137.266C183.509 137.265 183.722 137.217 183.917 137.125C184.07 137.464 184.497 138.191 185.831 137.917C185.933 138.421 186.705 139.027 187.898 138.784C188.051 139.339 189.123 139.537 189.844 139.205C190.846 138.759 191.885 137.33 192.517 136.787C193.149 136.245 193.449 136.041 193.461 135.703C193.461 135.243 192.97 134.778 192.128 134.854C193.121 134.577 194.01 134.011 194.68 133.227C195.195 132.511 195.624 131.735 195.956 130.918C196.214 130.236 196.607 129.613 197.111 129.087C198.042 128.04 196.651 126.471 195.899 125.737L195.777 125.571Z" fill="#9E6767"/>
<path d="M192.146 134.874C191.856 135.025 191.584 135.209 191.336 135.422C191.218 135.53 191.111 135.65 191.017 135.78C190.915 135.907 190.845 136.047 190.73 136.188L190.672 136.258L190.596 136.22C190.101 136.026 189.567 135.954 189.039 136.009C189.569 135.795 190.161 135.795 190.691 136.009H190.558C190.728 135.723 190.943 135.467 191.196 135.25C191.484 135.062 191.807 134.934 192.146 134.874Z" fill="#874C4C"/>
<path d="M190.301 137.572C190.365 137.31 190.454 137.087 190.505 136.851C190.567 136.609 190.614 136.364 190.645 136.117C190.768 136.36 190.796 136.64 190.722 136.902C190.659 137.165 190.511 137.401 190.301 137.572Z" fill="#874C4C"/>
<path d="M187.918 138.803C187.607 138.168 187.423 137.479 187.376 136.774C187.304 136.071 187.371 135.359 187.574 134.682C187.53 135.373 187.541 136.066 187.605 136.755C187.653 137.445 187.757 138.13 187.918 138.803Z" fill="#874C4C"/>
<path d="M185.848 137.936C185.556 137.142 185.366 136.314 185.28 135.473C185.176 134.622 185.213 133.76 185.389 132.921C185.376 133.758 185.414 134.596 185.504 135.428C185.58 136.283 185.727 137.106 185.848 137.936Z" fill="#874C4C"/>
<path d="M183.919 137.17C183.159 135.578 183.005 133.763 183.485 132.066C183.409 132.915 183.409 133.769 183.485 134.618C183.556 135.479 183.701 136.333 183.919 137.17Z" fill="#874C4C"/>
<path d="M183.597 130.714C183.582 130.495 183.619 130.277 183.706 130.076C183.796 129.879 183.929 129.704 184.095 129.565C184.437 129.324 184.834 129.17 185.25 129.119C185.071 129.227 184.892 129.323 184.72 129.419C184.546 129.508 184.381 129.614 184.229 129.738C183.922 129.99 183.701 130.331 183.597 130.714Z" fill="#874C4C"/>
<path d="M185.576 131.486C185.555 131.268 185.59 131.048 185.678 130.848C185.769 130.649 185.904 130.474 186.074 130.337C186.412 130.091 186.807 129.938 187.222 129.891L186.693 130.184C186.521 130.278 186.357 130.384 186.202 130.503C185.896 130.758 185.678 131.101 185.576 131.486Z" fill="#874C4C"/>
<path d="M187.967 132.57C187.946 132.352 187.981 132.132 188.069 131.932C188.159 131.733 188.295 131.559 188.465 131.422C188.804 131.178 189.199 131.025 189.613 130.975C189.434 131.084 189.256 131.179 189.083 131.275C188.909 131.364 188.744 131.471 188.592 131.594C188.284 131.843 188.065 132.186 187.967 132.57Z" fill="#874C4C"/>
<path d="M197.962 121.431L195.282 120.531C194.978 120.446 194.657 120.435 194.347 120.497C194.036 120.559 193.745 120.693 193.496 120.889L191.371 122.758C191.279 122.824 191.206 122.915 191.16 123.019C191.114 123.123 191.096 123.238 191.11 123.351C191.11 123.485 191.237 123.989 191.269 124.136C191.302 124.245 191.363 124.343 191.446 124.42C191.529 124.498 191.631 124.551 191.742 124.576L194.421 125.482C194.726 125.567 195.047 125.578 195.357 125.516C195.667 125.454 195.958 125.32 196.208 125.125L198.326 123.249C198.417 123.186 198.49 123.101 198.538 123.002C198.586 122.902 198.607 122.792 198.6 122.681C198.6 122.535 198.466 122.043 198.434 121.877C198.403 121.768 198.342 121.668 198.259 121.59C198.176 121.511 198.073 121.456 197.962 121.431Z" fill="#37474F"/>
<path d="M191.37 122.758L193.495 120.889C193.743 120.693 194.035 120.559 194.345 120.497C194.655 120.435 194.976 120.446 195.281 120.531L197.961 121.431C198.077 121.444 198.186 121.494 198.272 121.573C198.358 121.653 198.417 121.757 198.44 121.871C198.464 121.986 198.45 122.105 198.402 122.212C198.353 122.318 198.273 122.407 198.171 122.464L196.047 124.334C195.798 124.529 195.506 124.664 195.196 124.726C194.886 124.788 194.565 124.776 194.26 124.691L191.581 123.791C191.464 123.778 191.356 123.728 191.269 123.649C191.183 123.57 191.124 123.466 191.101 123.351C191.078 123.236 191.091 123.117 191.139 123.011C191.188 122.904 191.268 122.816 191.37 122.758Z" fill="#455A64"/>
<path d="M195.15 124.468C194.886 124.536 194.61 124.536 194.346 124.468L191.666 123.568C191.494 123.511 191.386 123.422 191.367 123.32C191.347 123.217 191.411 123.103 191.552 122.981L193.67 121.112C193.881 120.943 194.131 120.829 194.397 120.78C194.661 120.712 194.937 120.712 195.201 120.78L197.881 121.68C198.053 121.737 198.161 121.827 198.18 121.929C198.2 122.031 198.136 122.146 197.995 122.267L195.877 124.136C195.666 124.305 195.416 124.419 195.15 124.468Z" fill="#263238"/>
<path d="M193.963 125.048H193.918L192.004 124.41C191.992 124.407 191.982 124.401 191.973 124.393C191.964 124.385 191.956 124.376 191.951 124.365C191.945 124.354 191.942 124.342 191.942 124.331C191.941 124.319 191.942 124.307 191.946 124.295C191.954 124.272 191.97 124.252 191.991 124.241C192.013 124.229 192.038 124.225 192.061 124.231L193.975 124.869C193.987 124.872 193.999 124.878 194.008 124.885C194.018 124.893 194.026 124.902 194.031 124.913C194.037 124.924 194.04 124.936 194.04 124.949C194.04 124.961 194.038 124.973 194.033 124.984C194.027 125 194.018 125.014 194.006 125.025C193.993 125.036 193.979 125.044 193.963 125.048Z" fill="#455A64"/>
<path d="M196.219 124.633C196.621 124.755 197.495 125.303 197.871 126.905C198.248 128.506 197.405 129.833 196.493 130.018C196.818 130.235 197.59 129.916 198.541 129.202L199.332 128.608C199.647 128.374 199.899 128.066 200.066 127.711C200.233 127.356 200.31 126.965 200.289 126.573C200.276 126.332 200.24 126.093 200.181 125.858C200.085 125.249 199.861 124.667 199.524 124.151C199.186 123.636 198.742 123.197 198.222 122.866L196.219 124.633Z" fill="#263238"/>
<path d="M134.625 145.509C136.092 138.822 138.325 128.965 138.376 127.485C138.593 121.501 137.049 117.041 136.494 113.322C135.282 105.213 138.319 98.4052 140.207 96.8038C140.207 96.8038 142.173 96.3572 144.514 95.7957C145.846 95.4722 147.197 95.2293 148.559 95.0684C152.152 94.5651 155.79 94.4667 159.405 94.7749C160.285 94.8643 164.451 95.5788 164.451 95.5788C165.728 95.8723 168.018 96.2934 168.024 96.2934C170.258 98.3531 172.124 100.778 173.543 103.464C175.597 107.139 176.612 110.215 176.337 118.087C176.261 120.454 176.165 124.684 176.261 128.059C176.459 135.288 177.007 138.267 177.926 144.826C169.638 149.93 148.731 152.284 134.625 145.509Z" fill="#263238"/>
<path d="M149.2 90.5962C149.825 90.442 150.434 90.2283 151.018 89.9582C151.862 89.5231 152.8 89.3039 153.749 89.3202C154.917 89.4414 155.874 90.2262 156.984 90.526C157.61 90.6798 158.261 90.7058 158.898 90.6026C159.293 90.5452 159.67 90.4176 160.059 90.3282C160.696 90.1743 161.355 90.1376 162.005 90.2198C162.666 90.3698 163.353 90.3698 164.015 90.2198C165.048 89.8625 165.641 88.7524 166.637 88.3058C167.747 87.7954 169.061 88.2356 170.261 88.0123C170.799 87.8955 171.305 87.6641 171.745 87.3338C172.186 87.0035 172.55 86.5821 172.813 86.0983C173.327 85.119 173.527 84.0054 173.387 82.9083C173.205 82.1686 173.205 81.3959 173.387 80.6562C173.621 80.1952 173.937 79.7803 174.318 79.4312C175.014 78.6656 175.594 77.6129 175.269 76.6304C174.988 75.7691 174.063 75.1694 173.993 74.2634C173.992 74.0551 174.037 73.8492 174.125 73.6606C174.213 73.472 174.342 73.3054 174.503 73.1728C174.664 73.0403 174.852 72.9451 175.054 72.8943C175.256 72.8435 175.467 72.8382 175.671 72.8789C175.868 72.9433 176.05 73.0501 176.202 73.1917C176.354 73.3334 176.473 73.5065 176.552 73.6991C176.63 73.8917 176.666 74.099 176.656 74.3067C176.646 74.5143 176.59 74.7173 176.494 74.9014C176.934 74.622 177.307 74.248 177.585 73.8066C177.863 73.3652 178.04 72.8674 178.102 72.3494C178.035 71.4546 177.617 70.6224 176.94 70.0335C176.302 69.3955 175.588 68.8787 175.026 68.1896C174.728 67.813 174.511 67.3785 174.388 66.9136C174.33 66.6867 174.306 66.4522 174.318 66.2182C174.318 65.8035 174.51 65.3952 174.573 64.9805C174.685 64.1281 174.49 63.2638 174.022 62.5425C173.554 61.8212 172.845 61.2899 172.021 61.044C171.128 60.808 170.056 60.8718 169.469 60.17C169.029 59.6596 169.016 58.894 168.768 58.2943C168.13 56.7056 165.954 56.2271 164.353 56.8524C163.562 57.1586 162.764 57.6818 161.941 57.4904C161.385 57.2858 160.885 56.9536 160.48 56.5206C159.732 55.8959 158.863 55.4312 157.928 55.1553C157.462 55.0162 156.983 54.9243 156.499 54.881C156.256 54.881 156.014 54.881 155.772 54.881C155.587 54.9009 155.402 54.9116 155.217 54.9129C155.06 54.8864 154.903 54.8694 154.744 54.8618C154.544 54.8638 154.343 54.8787 154.145 54.9065C153.356 55.0115 152.597 55.274 151.912 55.6785C151.355 56.0033 150.858 56.4221 150.444 56.9162C150.167 57.297 149.857 57.6534 149.519 57.9816C148.607 58.7536 147.305 58.7409 146.119 58.8876C144.745 59.0275 143.433 59.5343 142.323 60.355C141.777 60.7732 141.325 61.3008 140.995 61.904C140.666 62.5072 140.466 63.1726 140.409 63.8576C140.465 64.4706 140.389 65.0886 140.185 65.6695C139.931 66.0729 139.565 66.3941 139.133 66.5946C138.131 67.0493 137.156 67.5584 136.21 68.1195C135.74 68.4071 135.351 68.81 135.079 69.2901C134.808 69.7701 134.664 70.3115 134.66 70.8629C134.737 71.788 135.375 72.5536 135.936 73.3128C136.498 74.072 136.963 75.0099 136.683 75.8967C136.424 76.4262 136.117 76.9303 135.764 77.4024C135.441 78.0546 135.387 78.808 135.615 79.4994C135.843 80.1907 136.335 80.7645 136.982 81.0964C137.805 81.4792 138.973 81.5813 139.209 82.4553C139.243 82.9601 139.171 83.4663 138.999 83.9419C138.743 85.4412 140.185 86.8129 141.697 87.017C142.546 87.1382 143.503 87.017 144.185 87.5338C144.766 87.9804 144.951 88.7715 145.359 89.384C145.771 89.989 146.395 90.4171 147.108 90.5834C147.452 90.6664 147.816 90.6153 148.154 90.7047C148.506 90.7437 148.863 90.7067 149.2 90.5962Z" fill="#263238"/>
<path d="M148.958 92.5932C148.958 91.2661 148.792 84.599 148.792 84.599C148.735 85.0967 146.31 86.4492 144.154 83.8781C141.997 81.3069 141.857 78.5699 143.159 76.8601C144.594 74.9461 148.346 74.9907 148.703 78.2382C150.566 78.168 151.465 77.3641 150.725 74.2953C150.891 72.5089 152.639 71.7433 153.137 68.8787C153.303 67.7879 153.836 66.7863 154.648 66.0393C155.46 65.2923 156.502 64.8445 157.603 64.77C158.485 64.7003 159.371 64.8279 160.198 65.1435C161.025 65.4591 161.77 65.9548 162.382 66.5947C162.605 66.1589 162.922 65.7782 163.31 65.4802C163.699 65.1823 164.149 64.9745 164.627 64.8721C165.839 64.7107 167.066 65.0166 168.061 65.7276C169.055 66.4386 169.741 67.5014 169.98 68.7001C170.633 71.7771 170.907 74.9224 170.797 78.0659C170.535 85.1413 168.634 88.5546 166.369 89.7413C164.844 90.5324 163.473 90.7174 160.825 90.4941L160.94 92.7144C160.991 93.8309 160.889 94.6284 161.973 95.0176C162.694 95.26 164.417 95.5918 164.417 95.5918C164.417 95.5918 166.937 99.9429 159.995 100.332C148.933 100.97 144.498 95.8087 144.498 95.8087L146.948 95.0558C148.754 94.4816 148.945 93.9266 148.958 92.5932Z" fill="#9E6767"/>
<path d="M162.36 82.7678C162.18 82.5342 161.929 82.3643 161.645 82.2829C161.392 82.208 161.131 82.1609 160.867 82.1426C160.611 82.1222 160.353 82.1373 160.101 82.1873C159.96 82.2149 159.822 82.2533 159.687 82.3021C159.573 82.3544 159.468 82.4232 159.374 82.5063C159.317 82.5509 159.234 82.7997 159.374 82.7997C159.508 82.8125 159.642 82.8125 159.776 82.7997L160.127 82.7678C160.376 82.7551 160.625 82.7551 160.873 82.7678C161.116 82.7818 161.356 82.8247 161.588 82.8954C161.69 82.9273 161.792 82.9401 161.894 82.9656C161.996 82.9911 162.009 82.9975 162.066 83.0039C162.141 83.0102 162.215 83.0102 162.29 83.0039C162.379 82.9911 162.405 82.8252 162.36 82.7678Z" fill="#874C4C"/>
<path opacity="0.2" d="M162.36 82.7678C162.18 82.5342 161.929 82.3643 161.645 82.2829C161.392 82.208 161.131 82.1609 160.867 82.1426C160.611 82.1222 160.353 82.1373 160.101 82.1873C159.96 82.2149 159.822 82.2533 159.687 82.3021C159.573 82.3544 159.468 82.4232 159.374 82.5063C159.317 82.5509 159.234 82.7997 159.374 82.7997C159.508 82.8125 159.642 82.8125 159.776 82.7997L160.127 82.7678C160.376 82.7551 160.625 82.7551 160.873 82.7678C161.116 82.7818 161.356 82.8247 161.588 82.8954C161.69 82.9273 161.792 82.9401 161.894 82.9656C161.996 82.9911 162.009 82.9975 162.066 83.0039C162.141 83.0102 162.215 83.0102 162.29 83.0039C162.379 82.9911 162.405 82.8252 162.36 82.7678Z" fill="black"/>
<path d="M168.743 71.7943L165.961 70.6842C166.024 70.4972 166.124 70.3252 166.256 70.1787C166.388 70.0322 166.549 69.9144 166.729 69.8324C166.908 69.7505 167.102 69.7063 167.299 69.7024C167.497 69.6986 167.692 69.7352 167.875 69.8101C168.246 69.9673 168.542 70.2605 168.704 70.6295C168.865 70.9985 168.879 71.4153 168.743 71.7943Z" fill="#263238"/>
<path d="M159.239 70.8817L156.272 70.2437C156.221 70.4344 156.209 70.6336 156.238 70.829C156.266 71.0245 156.334 71.2121 156.437 71.3804C156.541 71.5487 156.677 71.6943 156.838 71.8082C157 71.9221 157.183 72.0019 157.376 72.0428C157.776 72.1262 158.193 72.052 158.54 71.8358C158.887 71.6195 159.137 71.2777 159.239 70.8817Z" fill="#263238"/>
<path d="M165.707 74.4735C165.682 74.806 165.788 75.135 166.003 75.3902C166.217 75.6453 166.523 75.8064 166.855 75.8388C167.016 75.8573 167.18 75.8432 167.336 75.7973C167.491 75.7515 167.636 75.6748 167.762 75.5719C167.887 75.4689 167.991 75.3418 168.066 75.1981C168.142 75.0543 168.188 74.8968 168.201 74.735C168.226 74.4025 168.12 74.0735 167.905 73.8183C167.691 73.5631 167.385 73.4021 167.053 73.3697C166.892 73.3512 166.728 73.3653 166.572 73.4111C166.417 73.457 166.272 73.5337 166.146 73.6366C166.021 73.7396 165.917 73.8667 165.842 74.0104C165.766 74.1542 165.72 74.3116 165.707 74.4735Z" fill="#263238"/>
<path d="M156.644 74.6461C156.619 74.9786 156.726 75.3076 156.94 75.5628C157.155 75.818 157.461 75.979 157.793 76.0114C157.954 76.0308 158.117 76.0176 158.273 75.9725C158.428 75.9274 158.573 75.8514 158.699 75.7489C158.825 75.6465 158.928 75.5197 159.004 75.3763C159.08 75.2328 159.125 75.0756 159.139 74.914C159.164 74.5815 159.057 74.2525 158.843 73.9973C158.628 73.7422 158.322 73.5811 157.99 73.5487C157.829 73.5293 157.666 73.5425 157.51 73.5876C157.355 73.6327 157.21 73.7088 157.084 73.8112C156.958 73.9137 156.855 74.0404 156.779 74.1839C156.703 74.3273 156.658 74.4845 156.644 74.6461Z" fill="#263238"/>
<path d="M166.836 78.8248L162.753 80.3177L161.668 73.2231C163.237 73.2614 165.254 75.7369 166.836 78.8248Z" fill="#874C4C"/>
<path d="M160.826 90.4814C156.073 89.9901 151.524 88.427 150.465 86.2578C150.656 87.6193 151.336 88.8645 152.379 89.7604C155.569 92.4145 160.928 92.1593 160.928 92.1593L160.826 90.4814Z" fill="#874C4C"/>
<path d="M132.498 156.668C130.494 157.236 127.929 154.754 127.228 153.88C126.526 153.006 127.425 150.952 127.866 149.216C128.306 147.481 127.866 144.54 130.016 145.388C132.166 146.237 136.67 151.985 132.498 156.668Z" fill="#874C4C"/>
<path d="M140.191 96.8042C134.615 97.6336 132.031 98.967 128.962 105.136C125.389 112.32 119.609 122.311 118.716 125.431C117.88 128.334 116.221 130.408 119.399 134.816C122.301 138.855 131.438 149.433 132.797 150.983C133.983 152.355 133.326 156.291 129.243 155.704C129.243 155.704 132.35 158.454 134.053 158.148C135.527 157.886 137.843 156.598 139.968 152.132C141.308 149.312 140.185 147.104 138.149 143.965C135.712 140.22 130.449 129.776 130.449 129.776L139.866 113.067C139.866 113.067 144.938 101.761 140.191 96.8042Z" fill="#9E6767"/>
<path d="M196.72 261.58C196.654 260.681 196.248 259.841 195.584 259.232C195.008 258.593 194.223 258.179 193.37 258.064C193.224 258.064 193.147 258.275 193.141 258.39C193.13 258.471 193.141 258.554 193.172 258.631C193.204 258.707 193.254 258.773 193.319 258.824C193.95 259.153 194.538 259.555 195.074 260.023C195.289 260.252 195.472 260.51 195.616 260.789C195.654 260.859 195.688 260.932 195.718 261.006V261.044L195.769 261.178C195.827 261.344 195.903 261.51 195.948 261.682C196.001 261.996 196.029 262.314 196.031 262.633C196.029 262.737 196.053 262.84 196.101 262.932C196.267 263.175 196.497 262.735 196.56 262.569C196.68 262.253 196.734 261.917 196.72 261.58Z" fill="#FAFAFA"/>
<path d="M197.997 257.606C197.375 256.873 196.605 256.28 195.739 255.864C194.869 255.365 193.838 255.228 192.868 255.481C192.625 255.57 192.651 256.119 192.868 256.177C193.75 256.367 194.616 256.625 195.458 256.949C196.122 257.249 196.717 257.684 197.206 258.225C198.425 259.571 198.807 261.446 198.814 263.214C198.814 263.341 198.948 263.329 198.993 263.214C199.95 261.376 199.26 259.118 197.997 257.606Z" fill="#FAFAFA"/>
<path d="M67.6875 74.8692C71.171 81.9382 79.3629 87.929 93.6924 87.9418C100.072 87.9418 105.234 86.7424 109.311 84.7965C112.048 88.1651 117.605 89.4156 121.656 87.8461C121.775 87.7991 121.877 87.7173 121.949 87.6115C122.021 87.5057 122.059 87.3807 122.059 87.2527C122.059 87.1248 122.021 86.9998 121.949 86.894C121.877 86.7882 121.775 86.7064 121.656 86.6594C117.566 84.9496 116.386 82.0467 116.067 79.9987C117.532 78.4957 118.755 76.7737 119.691 74.8947C121.57 71.1841 122.422 67.0383 122.158 62.8873C121.895 58.7364 120.525 54.7317 118.192 51.2887C113.572 44.2388 103.415 39.8047 93.686 39.8047C83.9565 39.8047 73.7995 44.2324 69.1804 51.2887C66.8538 54.7299 65.4888 58.7302 65.2263 62.8758C64.9638 67.0215 65.8135 71.162 67.6875 74.8692Z" fill="white"/>
<path d="M117.893 88.7518C114.608 88.7518 111.22 87.4057 109.249 85.0897C104.891 87.1313 99.6785 88.1713 93.7196 88.1713H93.675C76.5383 88.1713 69.9095 79.8773 67.4787 74.9774C65.5851 71.2309 64.7268 67.0465 64.9926 62.857C65.2584 58.6676 66.6388 54.6252 68.9907 51.1481C73.5333 44.2131 83.4606 39.5557 93.6941 39.5557C103.928 39.5557 113.855 44.2067 118.397 51.1417C120.758 54.6159 122.145 58.6581 122.417 62.8492C122.688 67.0404 121.834 71.2279 119.941 74.9774C119.009 76.8492 117.801 78.5699 116.356 80.0814C116.707 82.1166 117.944 84.8345 121.785 86.4614C121.947 86.5284 122.085 86.6429 122.181 86.7898C122.277 86.9367 122.325 87.1092 122.321 87.2844C122.324 87.4579 122.272 87.6278 122.174 87.7707C122.076 87.9136 121.935 88.0224 121.772 88.0819C120.532 88.5442 119.217 88.7714 117.893 88.7518ZM109.376 84.5028L109.491 84.6495C112.107 87.8395 117.523 89.1984 121.575 87.6226C121.648 87.5956 121.712 87.5458 121.755 87.4804C121.799 87.415 121.821 87.3374 121.817 87.2589C121.822 87.1778 121.801 87.0973 121.757 87.0286C121.714 86.96 121.65 86.9066 121.575 86.8761C117.46 85.1535 116.184 82.206 115.833 80.0368V79.9219L115.916 79.839C117.369 78.3348 118.579 76.6127 119.501 74.735C121.354 71.0667 122.195 66.9704 121.935 62.8688C121.676 58.7673 120.327 54.8093 118.027 51.4033C113.638 44.7107 103.647 40.0342 93.7196 40.0342C83.7923 40.0342 73.8013 44.7107 69.4118 51.4033C67.104 54.8116 65.7493 58.7749 65.4879 62.8827C65.2266 66.9906 66.0681 71.0936 67.9253 74.7669C70.305 79.5965 76.819 87.6928 93.7196 87.7055C99.6849 87.7055 104.904 86.6528 109.236 84.5857L109.376 84.5028Z" fill="#455A64"/>
<path d="M99.6289 68.6678C101.326 70.5371 101.479 72.8084 101.479 75.5327H85.8672C85.8672 72.8084 86.0203 70.5371 87.7174 68.6678C89.4145 66.7984 90.7798 66.1541 91.4752 65.4778C91.7384 65.3032 91.9543 65.0662 92.1037 64.7879C92.253 64.5096 92.3312 64.1986 92.3312 63.8828C92.3312 63.5669 92.253 63.256 92.1037 62.9777C91.9543 62.6994 91.7384 62.4624 91.4752 62.2878C90.7798 61.6115 89.4081 60.9607 87.7174 59.0978C86.0267 57.2348 85.8672 54.9572 85.8672 52.2329H101.479C101.479 54.9572 101.326 57.2348 99.6289 59.0978C97.9318 60.9607 96.5665 61.6115 95.871 62.2878C95.6078 62.4624 95.3919 62.6994 95.2426 62.9777C95.0932 63.256 95.015 63.5669 95.015 63.8828C95.015 64.1986 95.0932 64.5096 95.2426 64.7879C95.3919 65.0662 95.6078 65.3032 95.871 65.4778C96.2475 65.8414 96.828 66.2051 97.5426 66.7538C98.2946 67.3272 98.9929 67.9678 99.6289 68.6678Z" fill="#5B26CF"/>
<path opacity="0.6" d="M99.6289 68.6678C101.326 70.5371 101.479 72.8084 101.479 75.5327H85.8672C85.8672 72.8084 86.0203 70.5371 87.7174 68.6678C89.4145 66.7984 90.7798 66.1541 91.4752 65.4778C91.7384 65.3032 91.9543 65.0662 92.1037 64.7879C92.253 64.5096 92.3312 64.1986 92.3312 63.8828C92.3312 63.5669 92.253 63.256 92.1037 62.9777C91.9543 62.6994 91.7384 62.4624 91.4752 62.2878C90.7798 61.6115 89.4081 60.9607 87.7174 59.0978C86.0267 57.2348 85.8672 54.9572 85.8672 52.2329H101.479C101.479 54.9572 101.326 57.2348 99.6289 59.0978C97.9318 60.9607 96.5665 61.6115 95.871 62.2878C95.6078 62.4624 95.3919 62.6994 95.2426 62.9777C95.0932 63.256 95.015 63.5669 95.015 63.8828C95.015 64.1986 95.0932 64.5096 95.2426 64.7879C95.3919 65.0662 95.6078 65.3032 95.871 65.4778C96.2475 65.8414 96.828 66.2051 97.5426 66.7538C98.2946 67.3272 98.9929 67.9678 99.6289 68.6678Z" fill="white"/>
<path opacity="0.5" d="M86.304 75.2141C86.2617 75.2141 86.2212 75.1973 86.1913 75.1674C86.1613 75.1374 86.1445 75.0969 86.1445 75.0546C86.1445 72.7641 86.3104 70.5886 87.9246 68.7767C88.7548 67.8679 89.6859 67.0566 90.6999 66.3586C91.0425 66.1285 91.3686 65.8748 91.676 65.5994C91.9616 65.4008 92.1949 65.1361 92.356 64.8278C92.5171 64.5195 92.6013 64.1768 92.6013 63.829C92.6013 63.4811 92.5171 63.1384 92.356 62.8301C92.1949 62.5218 91.9616 62.2571 91.676 62.0585C91.3697 61.7845 91.0457 61.5309 90.7062 61.2993C89.6904 60.5988 88.7573 59.7855 87.9246 58.8749C86.3104 57.0949 86.1637 54.8938 86.1445 52.6033C86.1445 52.561 86.1613 52.5205 86.1913 52.4906C86.2212 52.4607 86.2617 52.4438 86.304 52.4438C86.3446 52.4438 86.3836 52.46 86.4123 52.4887C86.441 52.5174 86.4572 52.5564 86.4572 52.597C86.4572 54.83 86.6166 56.9673 88.1542 58.6707C88.9714 59.561 89.8876 60.3551 90.8849 61.0377C91.2299 61.2813 91.5581 61.5477 91.8674 61.8352C92.1812 62.0644 92.4364 62.3644 92.6124 62.7109C92.7883 63.0573 92.88 63.4404 92.88 63.829C92.88 64.2175 92.7883 64.6006 92.6124 64.947C92.4364 65.2935 92.1812 65.5935 91.8674 65.8227C91.55 66.1093 91.2132 66.3736 90.8594 66.6138C89.8607 67.297 88.9444 68.0934 88.1287 68.9872C86.5911 70.6843 86.4508 72.8152 86.4316 75.0546C86.4324 75.0919 86.42 75.1283 86.3967 75.1574C86.3734 75.1866 86.3406 75.2066 86.304 75.2141Z" fill="white"/>
<path d="M98.9367 69.2546C100.213 70.6518 100.481 72.4446 100.525 74.5053H86.8594C86.904 72.4127 87.1273 70.639 88.448 69.2546C89.7687 67.8701 91.3956 67.264 93.6924 67.264C94.6549 67.2311 95.6143 67.3901 96.5147 67.7319C97.4151 68.0736 98.2385 68.5913 98.9367 69.2546Z" fill="#FAFAFA"/>
<path d="M100.464 54.421C100.416 55.8814 99.8788 57.2834 98.9388 58.4021C98.1409 59.273 97.2461 60.0501 96.272 60.7181C95.9023 60.9722 95.5506 61.2514 95.2193 61.5538C94.8846 61.8345 94.6111 62.1809 94.4157 62.5716C94.2204 62.9623 94.1073 63.3889 94.0836 63.8251C94.0836 64.5907 93.956 64.7885 93.6945 64.7885C93.4329 64.7885 93.3053 64.6099 93.3053 63.8251C93.2816 63.3889 93.1685 62.9623 92.9732 62.5716C92.7778 62.1809 92.5043 61.8345 92.1696 61.5538C91.8406 61.2514 91.491 60.9721 91.1233 60.7181C90.1458 60.0519 89.2487 59.2748 88.4501 58.4021C88.157 58.0787 87.9042 57.7209 87.6973 57.3367C87.6832 57.3086 87.6774 57.277 87.6805 57.2458C87.6837 57.2145 87.6956 57.1848 87.715 57.16C87.7344 57.1353 87.7604 57.1166 87.79 57.1061C87.8196 57.0955 87.8516 57.0936 87.8823 57.1006C89.1142 57.3943 90.3817 57.5103 91.6465 57.4451C94.1602 57.292 95.2895 56.8709 96.8653 55.5311C97.8096 54.74 98.5241 53.6171 99.1557 53.3747C99.3128 53.2879 99.492 53.2498 99.6707 53.265C99.8495 53.2802 100.02 53.3482 100.16 53.4602C100.3 53.5723 100.403 53.7234 100.458 53.8945C100.512 54.0655 100.514 54.2488 100.464 54.421Z" fill="#FAFAFA"/>
<path d="M93.6962 66.3709C93.9534 66.3709 94.1619 66.1624 94.1619 65.9052C94.1619 65.648 93.9534 65.4395 93.6962 65.4395C93.439 65.4395 93.2305 65.648 93.2305 65.9052C93.2305 66.1624 93.439 66.3709 93.6962 66.3709Z" fill="#FAFAFA"/>
<path opacity="0.3" d="M97.5428 66.7539C98.2948 67.3273 98.9931 67.968 99.629 68.6679C101.326 70.5372 101.479 72.8085 101.479 75.5328H87.6602C89.7464 75.5328 95.5841 74.5567 97.6704 72.5151C99.8779 70.3395 98.7933 68.4956 97.5428 66.7539Z" fill="#5B26CF"/>
<path opacity="0.3" d="M101.477 52.252C101.477 54.9762 101.324 57.2539 99.6265 59.1168C97.9294 60.9798 96.5641 61.6306 95.8687 62.3068C95.6055 62.4814 95.3896 62.7184 95.2402 62.9967C95.0908 63.275 95.0127 63.586 95.0127 63.9018C95.0127 64.2177 95.0908 64.5286 95.2402 64.8069C95.3896 65.0852 95.6055 65.3222 95.8687 65.4968C93.5783 64.106 93.9547 62.7088 94.3757 61.7773C94.7968 60.8458 97.6551 59.0849 97.4956 56.5074C97.3361 53.9299 93.3231 52.2711 89.5078 52.2711L101.477 52.252Z" fill="#5B26CF"/>
<path d="M102.889 50.1597C102.889 50.5268 102.743 50.879 102.483 51.1386C102.223 51.3983 101.871 51.5441 101.504 51.5441H85.8923C85.5251 51.5441 85.1729 51.3983 84.9133 51.1386C84.6537 50.879 84.5078 50.5268 84.5078 50.1597H102.889Z" fill="#5B26CF"/>
<path opacity="0.2" d="M96.5724 50.1597C96.5707 50.5274 96.4234 50.8796 96.1628 51.139C95.9021 51.3985 95.5493 51.5441 95.1816 51.5441H85.8923C85.5251 51.5441 85.1729 51.3983 84.9133 51.1386C84.6537 50.879 84.5078 50.5268 84.5078 50.1597H96.5724Z" fill="white"/>
<path d="M103.99 48.4434V48.9793C103.99 49.2923 103.865 49.5926 103.644 49.8139C103.423 50.0353 103.122 50.1596 102.809 50.1596H84.5944C84.2813 50.1596 83.9811 50.0353 83.7598 49.8139C83.5384 49.5926 83.4141 49.2923 83.4141 48.9793V48.4434C83.4157 48.3785 83.4427 48.3168 83.4892 48.2716C83.5356 48.2263 83.598 48.2009 83.6629 48.201H103.728C103.761 48.1983 103.795 48.2026 103.827 48.2136C103.858 48.2246 103.887 48.242 103.912 48.2648C103.937 48.2876 103.956 48.3152 103.969 48.346C103.983 48.3767 103.99 48.4099 103.99 48.4434Z" fill="#5B26CF"/>
<path opacity="0.15" d="M103.955 48.4431V48.979C103.955 49.2921 103.83 49.5923 103.609 49.8136C103.388 50.035 103.088 50.1593 102.774 50.1593H84.5787C84.2657 50.1593 83.9655 50.035 83.7441 49.8136C83.5228 49.5923 83.3984 49.2921 83.3984 48.979V48.4431C83.3984 48.3788 83.424 48.3172 83.4694 48.2717C83.5149 48.2262 83.5766 48.2007 83.6409 48.2007H103.706C103.771 48.2007 103.833 48.226 103.88 48.2713C103.926 48.3166 103.953 48.3782 103.955 48.4431Z" fill="black"/>
<path d="M98.7388 48.4431V48.979C98.7388 49.2921 98.6145 49.5923 98.3931 49.8136C98.1718 50.035 97.8716 50.1593 97.5585 50.1593H84.5944C84.2813 50.1593 83.9811 50.035 83.7598 49.8136C83.5384 49.5923 83.4141 49.2921 83.4141 48.979V48.4431C83.4157 48.3782 83.4427 48.3166 83.4892 48.2713C83.5356 48.226 83.598 48.2007 83.6629 48.2007H98.4964C98.5607 48.2007 98.6224 48.2262 98.6678 48.2717C98.7133 48.3172 98.7388 48.3788 98.7388 48.4431Z" fill="#5B26CF"/>
<path opacity="0.2" d="M86.5416 50.1593C86.3128 49.8843 86.1875 49.5378 86.1875 49.18C86.1875 48.8222 86.3128 48.4757 86.5416 48.2007H90.7205C90.9529 48.4741 91.0805 48.8212 91.0805 49.18C91.0805 49.5388 90.9529 49.886 90.7205 50.1593H86.5416Z" fill="white"/>
<path opacity="0.2" d="M87.2488 51.5441C87.0951 51.3461 87.0117 51.1026 87.0117 50.8519C87.0117 50.6012 87.0951 50.3577 87.2488 50.1597H90.0177C90.1713 50.3577 90.2547 50.6012 90.2547 50.8519C90.2547 51.1026 90.1713 51.3461 90.0177 51.5441H87.2488Z" fill="white"/>
<path d="M84.5078 77.4914C84.5078 77.1242 84.6537 76.7721 84.9133 76.5124C85.1729 76.2528 85.5251 76.1069 85.8923 76.1069H101.504C101.871 76.1069 102.223 76.2528 102.483 76.5124C102.743 76.7721 102.889 77.1242 102.889 77.4914H84.5078Z" fill="#5B26CF"/>
<path opacity="0.2" d="M90.8281 77.4914C90.8281 77.1242 90.974 76.7721 91.2336 76.5124C91.4933 76.2528 91.8454 76.1069 92.2126 76.1069H101.508C101.875 76.1069 102.228 76.2528 102.487 76.5124C102.747 76.7721 102.893 77.1242 102.893 77.4914H90.8281Z" fill="white"/>
<path d="M83.4141 79.2074V78.6715C83.4141 78.3585 83.5384 78.0583 83.7598 77.8369C83.9811 77.6156 84.2813 77.4912 84.5944 77.4912H102.79C103.103 77.4912 103.403 77.6156 103.625 77.8369C103.846 78.0583 103.97 78.3585 103.97 78.6715V79.2074C103.971 79.2398 103.966 79.272 103.954 79.3022C103.942 79.3323 103.924 79.3598 103.902 79.383C103.879 79.4062 103.852 79.4246 103.822 79.4372C103.792 79.4498 103.76 79.4563 103.728 79.4563H83.6629C83.5969 79.4563 83.5336 79.43 83.4869 79.3834C83.4403 79.3367 83.4141 79.2734 83.4141 79.2074Z" fill="#5B26CF"/>
<path opacity="0.15" d="M83.4141 79.2074V78.6715C83.4141 78.3585 83.5384 78.0583 83.7598 77.8369C83.9811 77.6156 84.2813 77.4912 84.5944 77.4912H102.79C103.103 77.4912 103.403 77.6156 103.625 77.8369C103.846 78.0583 103.97 78.3585 103.97 78.6715V79.2074C103.971 79.2398 103.966 79.272 103.954 79.3022C103.942 79.3323 103.924 79.3598 103.902 79.383C103.879 79.4062 103.852 79.4246 103.822 79.4372C103.792 79.4498 103.76 79.4563 103.728 79.4563H83.6629C83.5969 79.4563 83.5336 79.43 83.4869 79.3834C83.4403 79.3367 83.4141 79.2734 83.4141 79.2074Z" fill="black"/>
<path d="M88.6759 79.2074V78.6715C88.6759 78.3585 88.8003 78.0583 89.0216 77.8369C89.243 77.6156 89.5432 77.4912 89.8562 77.4912H102.82C103.133 77.4912 103.434 77.6156 103.655 77.8369C103.876 78.0583 104.001 78.3585 104.001 78.6715V79.2074C104.002 79.2398 103.996 79.272 103.984 79.3022C103.972 79.3323 103.955 79.3598 103.932 79.383C103.909 79.4062 103.882 79.4246 103.852 79.4372C103.823 79.4498 103.791 79.4563 103.758 79.4563H88.8928C88.8319 79.4498 88.7757 79.4206 88.7355 79.3745C88.6952 79.3283 88.674 79.2686 88.6759 79.2074Z" fill="#5B26CF"/>
<path opacity="0.2" d="M100.846 77.4912C101.078 77.7662 101.205 78.1142 101.205 78.4737C101.205 78.8333 101.078 79.1813 100.846 79.4563H96.6674C96.438 79.1802 96.3125 78.8326 96.3125 78.4737C96.3125 78.1148 96.438 77.7673 96.6674 77.4912H100.846Z" fill="white"/>
<path opacity="0.2" d="M100.163 76.1069C100.317 76.305 100.4 76.5485 100.4 76.7992C100.4 77.0498 100.317 77.2934 100.163 77.4914H97.3877C97.2351 77.2929 97.1523 77.0495 97.1523 76.7992C97.1523 76.5488 97.2351 76.3054 97.3877 76.1069H100.163Z" fill="white"/>
</svg>
