<svg width="18" height="17" viewBox="0 0 18 17" fill="none" xmlns="http://www.w3.org/2000/svg">
<path fill-rule="evenodd" clip-rule="evenodd" d="M14.0168 5.28382H17.7778C17.7778 2.26408 15.9684 0.5 12.9027 0.5H4.87506C1.80938 0.5 0 2.26408 0 5.24531V11.7547C0 14.7359 1.80938 16.5 4.87506 16.5H12.9027C15.9684 16.5 17.7778 14.7359 17.7778 11.7547V11.4774H14.0168C12.2713 11.4774 10.8563 10.0978 10.8563 8.396C10.8563 6.69421 12.2713 5.31464 14.0168 5.31464V5.28382ZM14.0158 6.60859H17.1131C17.4796 6.60859 17.7768 6.8983 17.7768 7.25568V9.50508C17.7725 9.86072 17.4778 10.148 17.1131 10.1522H14.0869C13.2032 10.1638 12.4305 9.57389 12.2301 8.73474C12.1297 8.21382 12.2706 7.67629 12.6151 7.2662C12.9595 6.85611 13.4722 6.61541 14.0158 6.60859ZM14.1498 8.97386H14.4422C14.8174 8.97386 15.1217 8.67725 15.1217 8.31137C15.1217 7.94548 14.8174 7.64887 14.4422 7.64887H14.1498C13.9703 7.64681 13.7975 7.71489 13.6698 7.83791C13.5421 7.96093 13.4703 8.12866 13.4703 8.30366C13.4703 8.67082 13.7733 8.96964 14.1498 8.97386ZM4.21154 5.28397H9.22882C9.6041 5.28397 9.90833 4.98736 9.90833 4.62148C9.90833 4.25559 9.6041 3.95898 9.22882 3.95898H4.21154C3.83932 3.95896 3.53636 4.2509 3.53203 4.61378C3.53201 4.98093 3.83498 5.27975 4.21154 5.28397Z" fill="#5B26CF"/>
</svg>

